<svg xmlns="http://www.w3.org/2000/svg" xmlns:xlink="http://www.w3.org/1999/xlink" width="500" zoomAndPan="magnify" viewBox="0 0 375 374.999991" height="500" preserveAspectRatio="xMidYMid meet" version="1.0"><defs><clipPath id="ec8c890afa"><path d="M 68 11.015625 L 149 11.015625 L 149 104 L 68 104 Z M 68 11.015625 " clip-rule="nonzero"/></clipPath><clipPath id="366001e800"><path d="M 214 187 L 368 187 L 368 364.265625 L 214 364.265625 Z M 214 187 " clip-rule="nonzero"/></clipPath><clipPath id="5e29be84ab"><path d="M 136 11.015625 L 325 11.015625 L 325 134 L 136 134 Z M 136 11.015625 " clip-rule="nonzero"/></clipPath></defs><path fill="#009748" d="M 71.65625 306.144531 C 71.808594 306.402344 83.511719 329.839844 175.816406 322.769531 C 163.824219 308.027344 152.84375 294.519531 148.003906 275.945312 C 149.554688 272.050781 151.386719 268.4375 153.449219 265.03125 C 135.191406 257.195312 127.285156 248.667969 119.660156 240.644531 C 103.058594 239.628906 90.203125 235.785156 84.550781 227.941406 C 64.976562 244.152344 65.164062 288.457031 71.65625 306.144531 " fill-opacity="1" fill-rule="evenodd"/><path fill="#006b30" d="M 148.660156 275.042969 C 138.980469 270.855469 119.15625 262.183594 107.578125 239.222656 C 111.375 240.140625 115.265625 240.398438 118.070312 240.265625 C 118.070312 240.265625 134.945312 259.402344 154.140625 265.699219 L 148.660156 275.042969 " fill-opacity="1" fill-rule="evenodd"/><path fill="#006b30" d="M 71.65625 306.144531 C 78.921875 318.738281 104.6875 321.210938 117.957031 322.613281 C 101.152344 296.996094 88.828125 264.074219 96.453125 236.09375 C 93.355469 234.792969 91.378906 233.503906 89.992188 232.660156 C 68.296875 261.433594 65.164062 288.457031 71.65625 306.144531 " fill-opacity="1" fill-rule="evenodd"/><path fill="#009748" d="M 137.363281 12.910156 C 137.0625 12.910156 110.933594 11.335938 70.898438 94.875 C 89.648438 91.851562 106.832031 89.089844 125.324219 94.179688 C 127.574219 97.027344 129.535156 99.960938 131.261719 102.964844 C 141.929688 95.269531 153.164062 87.722656 172.449219 83.753906 C 180.914062 71.84375 189.816406 64.078125 198.589844 63.183594 C 194.347656 38.113281 155.914062 16.121094 137.363281 12.910156 " fill-opacity="1" fill-rule="evenodd"/><path fill="#006b30" d="M 126.964844 95.527344 C 126.964844 95.527344 150.648438 76.015625 178.648438 75.496094 C 178.648438 75.496094 174.722656 79.683594 172.761719 83.613281 C 172.761719 83.613281 146.066406 89.503906 131.023438 102.992188 L 126.964844 95.527344 " fill-opacity="1" fill-rule="evenodd"/><path fill="#006b30" d="M 137.363281 12.910156 C 122.828125 12.910156 107.8125 34.003906 99.96875 44.804688 C 130.535156 43.046875 165.179688 48.828125 185.582031 69.425781 C 188.257812 67.394531 190.359375 66.320312 191.785156 65.542969 C 177.734375 32.351562 155.914062 16.121094 137.363281 12.910156 " fill-opacity="1" fill-rule="evenodd"/><path fill="#009748" d="M 366.34375 189.988281 C 366.421875 189.699219 374.699219 164.84375 304.4375 104.523438 C 302.503906 123.429688 300.71875 140.757812 291.015625 157.316406 C 288.964844 158.199219 286.917969 158.972656 284.859375 159.640625 C 287.574219 171.246094 288.210938 186.984375 283.71875 199.691406 C 296.199219 213.121094 303.625 225.945312 301.972656 236.164062 C 327.265625 238.550781 358.4375 207.085938 366.34375 189.988281 " fill-opacity="1" fill-rule="evenodd"/><path fill="#006b30" d="M 292.820312 153.863281 C 295.039062 161.585938 302.011719 182.578125 291.207031 208.429688 C 289.175781 205.601562 286.925781 202.289062 284.125 200.546875 C 285.503906 194.175781 288.53125 179.019531 285.269531 159.28125 L 291.609375 157.605469 L 292.820312 153.863281 " fill-opacity="1" fill-rule="evenodd"/><path fill="#006b30" d="M 366.34375 189.988281 C 370.105469 175.9375 353.632812 155.957031 345.238281 145.582031 C 339.023438 175.585938 324.472656 207.582031 299.316406 221.972656 C 300.582031 225.082031 301.078125 227.394531 301.457031 228.976562 C 337.125 223.984375 358.4375 207.085938 366.34375 189.988281 " fill-opacity="1" fill-rule="evenodd"/><path fill="#05a1e6" d="M 191.335938 82.097656 C 194.15625 82.097656 196.945312 82.222656 199.707031 82.464844 C 202.179688 88.871094 204.609375 95.871094 206.964844 103.511719 C 196.058594 108.054688 181.234375 115.996094 168.761719 126.5625 C 204.695312 125.859375 236.3125 124.308594 273.035156 132.253906 C 273.324219 131.359375 273.617188 130.46875 273.917969 129.582031 C 282.167969 143.726562 286.90625 160.183594 286.90625 177.742188 C 286.90625 198.511719 280.289062 217.734375 269.050781 233.417969 C 266.394531 233.578125 263.675781 233.714844 260.882812 233.816406 C 259.320312 222.105469 255.492188 205.714844 248.523438 190.921875 C 241.957031 217.496094 236.515625 241.785156 226.71875 266.609375 C 215.773438 270.984375 203.835938 273.390625 191.335938 273.390625 C 151.546875 273.390625 117.4375 249.039062 103.054688 214.425781 C 106.742188 209.957031 110.800781 205.328125 115.265625 200.519531 C 124.640625 207.695312 138.929688 216.582031 154.304688 222.105469 C 136.132812 191.972656 119.324219 165.828125 107.847656 131.179688 C 124.191406 101.898438 155.449219 82.097656 191.335938 82.097656 " fill-opacity="1" fill-rule="evenodd"/><path fill="#115fa2" d="M 226.71875 266.609375 C 215.773438 270.984375 203.835938 273.390625 191.335938 273.390625 C 151.546875 273.390625 117.4375 249.035156 103.054688 214.417969 C 103.9375 213.355469 104.835938 212.285156 105.761719 211.199219 C 123.859375 224.730469 146.308594 232.746094 170.636719 232.746094 C 199.742188 232.746094 226.171875 221.269531 245.664062 202.59375 C 240.25 224.710938 235.066406 245.464844 226.71875 266.609375 Z M 278.285156 137.996094 C 283.820312 150.101562 286.90625 163.558594 286.90625 177.742188 C 286.90625 198.511719 280.289062 217.734375 269.050781 233.417969 C 266.394531 233.578125 263.675781 233.714844 260.882812 233.816406 C 259.53125 223.671875 256.476562 210.027344 251.160156 196.945312 C 265.644531 180.910156 275.414062 160.527344 278.285156 137.996094 " fill-opacity="1" fill-rule="evenodd"/><path fill="#fddf4c" d="M 131.695312 130.742188 C 131.695312 130.742188 132.023438 121.738281 133.59375 120.953125 C 135.167969 120.164062 135.230469 121.671875 135.691406 124.429688 C 136.148438 127.191406 137.257812 136.585938 138.898438 138.691406 C 140.53125 140.796875 140.269531 144.277344 138.960938 145.789062 C 137.652344 147.296875 138.636719 149.140625 142.042969 149.269531 C 145.441406 149.402344 146.882812 151.238281 147.929688 152.683594 C 148.980469 154.132812 154.867188 154.261719 154.867188 154.261719 C 154.867188 154.261719 158.335938 150.324219 155.789062 146.640625 C 153.234375 142.964844 152.777344 142.570312 152.449219 139.9375 C 152.117188 137.3125 154.410156 135.007812 155.71875 132.253906 C 157.027344 129.492188 165.25 115.007812 166.167969 110.6875 C 167.082031 106.371094 162.242188 92.488281 155.828125 92.488281 C 149.421875 92.488281 139.945312 99.269531 139.945312 99.269531 C 139.945312 99.269531 137.390625 102.6875 135.429688 104.328125 C 133.464844 105.96875 129.40625 108.402344 127.445312 111.75 C 125.476562 115.101562 127.703125 116.746094 128.683594 119.375 C 129.667969 122 125.742188 128.839844 128.359375 133.042969 C 130.976562 137.246094 131.761719 136.585938 131.761719 136.585938 L 131.695312 130.742188 " fill-opacity="1" fill-rule="evenodd"/><path fill="#fddf4c" d="M 213.386719 266.488281 C 213.386719 266.488281 209.265625 268.722656 205.210938 270.761719 C 201.152344 272.796875 195.980469 271.613281 195.980469 271.613281 C 195.980469 271.613281 198.726562 265.964844 199.96875 264.71875 C 201.214844 263.464844 203.4375 262.542969 203.769531 259 C 204.09375 255.453125 203.570312 254.859375 205.273438 251.964844 C 206.976562 249.078125 210.253906 242.933594 210.253906 240.574219 C 210.253906 238.21875 210.183594 234.558594 206.488281 232.222656 C 202.785156 229.890625 197.613281 228.511719 194.800781 222.726562 C 191.984375 216.945312 193.097656 214.320312 190.148438 210.574219 C 187.207031 206.828125 183.804688 204.722656 185.570312 203.144531 C 187.335938 201.574219 189.171875 201.046875 189.171875 201.046875 C 189.171875 201.046875 186.679688 199.730469 187.207031 197.828125 C 187.730469 195.917969 189.628906 193.6875 190.480469 191.386719 C 191.332031 189.089844 192.507812 187.25 194.734375 187.511719 C 196.957031 187.773438 197.289062 187.96875 197.21875 186.589844 C 197.15625 185.210938 197.289062 177.195312 195.519531 175.089844 C 193.75 172.992188 195.257812 170.757812 196.566406 172.070312 C 197.875 173.386719 198.140625 174.632812 199.378906 172.597656 C 200.625 170.554688 203.242188 167.40625 204.945312 166.683594 C 206.648438 165.957031 213.128906 163.332031 214.109375 164.546875 C 215.089844 165.761719 221.308594 170.066406 223.734375 169.835938 C 226.15625 169.609375 230.640625 167.769531 230.640625 167.769531 C 230.640625 167.769531 232.175781 167.636719 233.351562 170.261719 C 234.535156 172.890625 236.300781 172.761719 238.035156 173.976562 C 239.769531 175.191406 240.980469 177.785156 242.652344 178.511719 C 244.316406 179.230469 251.882812 179.695312 253.386719 181.398438 C 254.886719 183.109375 254.5625 188.230469 254.5625 189.941406 C 254.5625 191.652344 255.871094 192.703125 258.558594 192.898438 C 261.238281 193.097656 263.660156 193.949219 264.117188 196.449219 C 264.578125 198.941406 269.292969 196.582031 270.53125 197.890625 C 271.777344 199.207031 272.691406 200.519531 274.070312 200.980469 C 275.445312 201.441406 275.511719 202.75 274.199219 207.355469 C 272.890625 211.953125 267.65625 218.066406 265.820312 221.546875 C 263.988281 225.03125 262.484375 227 261.308594 229.824219 C 261.058594 230.40625 260.828125 231.039062 260.574219 231.679688 C 258.851562 220.160156 255.078125 204.835938 248.523438 190.921875 C 242.675781 214.589844 237.722656 236.4375 229.789062 258.472656 C 227.128906 258.46875 225.863281 257.726562 225.792969 259.589844 C 225.730469 261.460938 223.277344 262.023438 219.871094 262.808594 C 216.464844 263.597656 216.007812 265.371094 213.386719 266.488281 " fill-opacity="1" fill-rule="evenodd"/><path fill="#e4ac30" d="M 251.15625 196.9375 C 252.632812 195.296875 254.0625 193.617188 255.441406 191.898438 C 256.097656 192.449219 257.132812 192.792969 258.558594 192.898438 C 261.238281 193.097656 263.660156 193.949219 264.117188 196.449219 C 264.578125 198.941406 269.292969 196.582031 270.53125 197.890625 C 271.777344 199.207031 272.691406 200.519531 274.070312 200.980469 C 275.445312 201.441406 275.511719 202.75 274.199219 207.355469 C 272.890625 211.953125 267.65625 218.066406 265.820312 221.546875 C 263.988281 225.03125 262.484375 227 261.308594 229.824219 C 261.058594 230.40625 260.828125 231.039062 260.574219 231.679688 C 259.097656 221.800781 256.109375 209.121094 251.15625 196.9375 Z M 213.386719 266.488281 C 213.386719 266.488281 209.265625 268.722656 205.210938 270.761719 C 201.152344 272.796875 195.980469 271.613281 195.980469 271.613281 C 195.980469 271.613281 198.726562 265.964844 199.96875 264.71875 C 201.214844 263.464844 203.4375 262.542969 203.769531 259 C 204.09375 255.453125 203.570312 254.859375 205.273438 251.964844 C 206.976562 249.078125 210.253906 242.933594 210.253906 240.574219 C 210.253906 238.21875 210.183594 234.558594 206.488281 232.222656 C 204.59375 231.027344 202.316406 230.085938 200.164062 228.675781 C 217.476562 223.785156 233.027344 214.703125 245.664062 202.59375 C 240.949219 221.863281 236.402344 240.101562 229.789062 258.472656 C 227.128906 258.46875 225.863281 257.726562 225.792969 259.589844 C 225.730469 261.460938 223.277344 262.023438 219.871094 262.808594 C 216.464844 263.597656 216.007812 265.371094 213.386719 266.488281 " fill-opacity="1" fill-rule="evenodd"/><path fill="#8cd02f" d="M 189.304688 126.128906 C 187.851562 126.15625 186.394531 126.1875 184.941406 126.21875 C 185.070312 126.753906 185.171875 127.269531 185.238281 127.65625 C 185.503906 129.101562 186.878906 134.550781 189.171875 133.960938 C 191.070312 133.472656 190.40625 130.054688 189.304688 126.128906 Z M 136.082031 122.59375 C 136.082031 122.59375 139.488281 118.390625 139.8125 121.9375 C 140.144531 125.480469 139.945312 129.558594 141.710938 134.09375 C 143.476562 138.625 146.101562 141.78125 146.6875 144.277344 C 147.277344 146.773438 149.894531 150.253906 152.449219 150.71875 C 155 151.175781 153.953125 146.640625 152.582031 145.59375 C 151.203125 144.542969 148.324219 141.453125 149.632812 138.625 C 150.941406 135.796875 151.730469 134.09375 150.089844 132.84375 C 148.453125 131.59375 152.1875 131.269531 150.613281 128.964844 C 149.042969 126.664062 146.152344 123.125 151.777344 121.425781 C 157.402344 119.722656 158.710938 115.140625 155.828125 115.140625 C 152.953125 115.140625 155.046875 110.425781 158.445312 108.851562 C 161.847656 107.285156 158.710938 107.410156 158.445312 103.355469 C 158.183594 99.300781 155.457031 101.242188 154.347656 98.941406 C 153.234375 96.636719 152.90625 94.933594 150.808594 97.101562 C 148.71875 99.269531 145.769531 99.726562 143.808594 99.988281 C 141.84375 100.25 140.074219 102.09375 138.960938 103.601562 C 137.851562 105.117188 135.625 106.953125 133.988281 109.585938 C 132.355469 112.214844 132.742188 113.988281 131.695312 115.5625 C 130.652344 117.140625 130.195312 123.183594 130.195312 125.15625 C 130.195312 127.128906 130.84375 129.429688 131.433594 130.28125 L 131.566406 136.65625 C 131.566406 136.65625 128.882812 135.078125 128.359375 133.238281 C 127.832031 131.402344 126.917969 128.050781 127.902344 124.367188 C 128.882812 120.691406 129.011719 119.179688 127.902344 117.664062 C 126.789062 116.15625 126.460938 112.539062 128.097656 110.375 C 129.730469 108.207031 133.136719 106.496094 135.753906 103.933594 C 138.371094 101.371094 140.011719 100.058594 140.339844 97.425781 C 140.339844 97.425781 146.621094 92.566406 158.078125 88.03125 C 158.078125 88.03125 171.625 83.105469 183.210938 82.84375 C 183.210938 82.84375 177.484375 85.335938 177.878906 86.289062 C 178.273438 87.246094 179.808594 88.03125 182.070312 88.03125 C 184.324219 88.03125 189.007812 87.835938 189.101562 88.527344 C 189.203125 89.214844 190.21875 93.519531 192.804688 92.859375 C 195.390625 92.203125 196.667969 91.351562 196.667969 89.710938 C 196.667969 88.0625 196.46875 85.273438 197.777344 85.273438 C 198.738281 85.273438 200.03125 86.015625 201.199219 86.421875 C 203.160156 91.730469 205.082031 97.410156 206.964844 103.511719 C 204.789062 104.417969 202.453125 105.460938 200.015625 106.632812 C 198.558594 106.742188 197.296875 107.03125 197.050781 108.09375 C 188.488281 112.425781 178.925781 118.226562 170.328125 125.257812 C 167.667969 124.796875 162.914062 124.765625 160.695312 125.683594 C 158.140625 126.734375 157.621094 127.65625 157.027344 129.164062 C 156.4375 130.675781 155.394531 133.367188 154.214844 134.945312 C 153.039062 136.523438 151.464844 138.230469 153.300781 142.632812 C 155.128906 147.035156 158.011719 149.070312 159.714844 148.746094 C 161.417969 148.414062 164.429688 148.023438 165.800781 146.902344 C 167.179688 145.789062 167.699219 144.34375 168.09375 143.160156 C 168.480469 141.972656 170.773438 140.203125 173.523438 140.070312 C 176.273438 139.9375 175.882812 140.664062 175.03125 143.359375 C 174.179688 146.050781 172.933594 147.691406 171.824219 149.203125 C 170.710938 150.71875 167.960938 155.578125 171.5625 154.65625 C 175.164062 153.738281 183.277344 151.570312 183.542969 154.527344 C 183.804688 157.484375 183.410156 159.914062 183.085938 163.332031 C 182.753906 166.746094 182.203125 170.066406 185.40625 170.128906 C 188.613281 170.199219 190.25 169.507812 192.082031 169.507812 C 193.917969 169.507812 195.945312 171.476562 197.1875 172.761719 C 197.1875 172.761719 197.644531 176.042969 195.683594 175.257812 C 193.71875 174.46875 193.882812 172.265625 191.984375 172.628906 C 190.085938 172.992188 190.054688 173.550781 188.878906 175.058594 C 187.699219 176.570312 187.207031 177.164062 185.277344 175.027344 C 183.34375 172.890625 182.035156 170.949219 178.5 169.867188 C 174.96875 168.78125 174.636719 168.652344 174.699219 165.300781 C 174.769531 161.949219 175.359375 160.246094 171.957031 160.046875 C 168.550781 159.851562 162.007812 159.851562 160.371094 157.351562 C 158.730469 154.859375 158.730469 154 155.128906 154 C 151.53125 154 148.519531 153.738281 147.144531 151.570312 C 145.769531 149.402344 143.613281 149.007812 141.449219 149.007812 C 139.292969 149.007812 137.519531 147.5625 138.960938 145.457031 C 140.402344 143.359375 140.339844 141.386719 138.765625 137.769531 C 137.195312 134.15625 136.34375 129.429688 136.082031 122.59375 " fill-opacity="1" fill-rule="evenodd"/><path fill="#8cd02f" d="M 190.148438 141.648438 C 190.148438 141.648438 187.730469 141.253906 184.261719 141.710938 C 180.792969 142.175781 181.574219 141.058594 182.234375 139.742188 C 182.882812 138.429688 187.269531 136.71875 192.703125 138.492188 C 198.140625 140.269531 205.667969 144.148438 204.945312 146.578125 C 204.226562 149.007812 199.96875 146.839844 197.480469 146.773438 C 194.996094 146.710938 194.539062 145.789062 193.625 144.277344 C 192.703125 142.761719 191.394531 141.847656 190.148438 141.648438 " fill-opacity="1" fill-rule="evenodd"/><path fill="#8cd02f" d="M 207.496094 151.4375 C 207.496094 151.4375 209.003906 152.621094 210.769531 152.492188 C 212.535156 152.359375 212.929688 151.113281 214.695312 151.308594 C 216.464844 151.5 219.34375 153.28125 219.675781 152.289062 C 220 151.308594 219.28125 149.464844 217.839844 148.21875 C 216.398438 146.972656 214.109375 145.332031 212.667969 146.050781 C 211.226562 146.773438 206.054688 150.253906 207.496094 151.4375 " fill-opacity="1" fill-rule="evenodd"/><path fill="#8cd02f" d="M 213.265625 266.894531 C 213.265625 266.894531 204.5 267.941406 208.03125 262.308594 C 211.5625 256.679688 214.832031 256.414062 215.359375 250.003906 C 215.886719 243.585938 219.804688 241.753906 221.773438 238.738281 C 223.734375 235.730469 221.898438 232.457031 216.800781 230.101562 C 211.695312 227.746094 215.492188 224.992188 208.820312 224.605469 C 202.144531 224.210938 200.578125 222.109375 198.480469 218.054688 C 196.390625 213.992188 197.808594 211.496094 195.910156 209.128906 C 194.371094 207.207031 194.238281 201.546875 191.449219 200.988281 C 190.742188 200.84375 189.6875 201.238281 188.972656 200.914062 C 185.175781 199.207031 187.894531 196.25 190.21875 191.847656 C 192.539062 187.441406 194.042969 187.511719 196.40625 187.707031 C 198.757812 187.90625 196.4375 181.398438 195.847656 177.132812 C 195.59375 175.289062 195.664062 170.925781 196.910156 172.132812 C 198.644531 173.8125 198.949219 173.375 202.847656 168.0625 C 204.132812 166.320312 212.605469 163.234375 214.441406 164.644531 C 216.269531 166.058594 219.679688 170.171875 224.910156 169.703125 C 226.265625 169.582031 227.429688 168.882812 229 168.324219 C 230.570312 167.769531 232.042969 167.011719 233.027344 169.640625 C 234.007812 172.265625 237.9375 173.253906 239.246094 174.765625 C 240.554688 176.273438 241.144531 178.378906 246.183594 179.167969 C 251.226562 179.957031 254.5625 181.070312 254.5625 184.421875 C 254.5625 187.773438 253.449219 191.78125 257.707031 192.703125 C 261.957031 193.617188 263.140625 193.75 263.855469 195.722656 C 264.578125 197.695312 266.804688 197.433594 269.027344 197.628906 C 271.253906 197.828125 271.320312 198.484375 272.039062 199.46875 C 272.761719 200.453125 275.117188 200.320312 275.117188 202.6875 C 275.117188 205.054688 273.613281 210.441406 270.863281 213.988281 C 268.113281 217.539062 265.429688 222.003906 262.746094 226.539062 C 261.714844 228.269531 261.160156 230.074219 260.582031 231.695312 C 258.855469 220.175781 255.082031 204.839844 248.523438 190.921875 C 242.671875 214.605469 237.714844 236.472656 229.773438 258.527344 C 229.613281 258.535156 229.457031 258.542969 229.292969 258.535156 C 227.003906 258.472656 226.023438 257.816406 225.824219 259.195312 C 225.628906 260.578125 225.894531 261.886719 222.488281 262.148438 C 219.085938 262.414062 215.355469 265.175781 213.265625 266.894531 " fill-opacity="1" fill-rule="evenodd"/><path fill="#53a037" d="M 251.15625 196.9375 C 252.691406 195.234375 254.179688 193.480469 255.609375 191.6875 C 256.09375 192.144531 256.769531 192.5 257.707031 192.703125 C 261.957031 193.617188 263.140625 193.75 263.855469 195.722656 C 264.578125 197.695312 266.804688 197.433594 269.027344 197.628906 C 271.253906 197.828125 271.320312 198.484375 272.039062 199.46875 C 272.761719 200.453125 275.117188 200.320312 275.117188 202.6875 C 275.117188 205.054688 273.613281 210.441406 270.863281 213.988281 C 268.113281 217.539062 265.429688 222.003906 262.746094 226.539062 C 261.714844 228.269531 261.160156 230.074219 260.582031 231.695312 C 259.105469 221.816406 256.113281 209.128906 251.15625 196.9375 Z M 213.265625 266.894531 C 213.265625 266.894531 204.5 267.941406 208.03125 262.308594 C 211.5625 256.679688 214.832031 256.414062 215.359375 250.003906 C 215.886719 243.585938 219.804688 241.753906 221.773438 238.738281 C 223.734375 235.730469 221.898438 232.457031 216.800781 230.101562 C 212.449219 228.09375 214.566406 225.792969 211.144531 224.921875 C 224.070312 219.707031 235.761719 212.078125 245.664062 202.59375 C 240.941406 221.882812 236.394531 240.140625 229.773438 258.527344 C 229.613281 258.535156 229.457031 258.542969 229.292969 258.535156 C 227.003906 258.472656 226.023438 257.816406 225.824219 259.195312 C 225.628906 260.578125 225.894531 261.886719 222.488281 262.148438 C 219.085938 262.414062 215.355469 265.175781 213.265625 266.894531 " fill-opacity="1" fill-rule="evenodd"/><path fill="#ffffff" d="M 274.027344 129.242188 L 274.214844 129.566406 L 274.015625 129.28125 Z M 191.335938 81.570312 C 194.082031 81.570312 196.804688 81.6875 199.488281 81.914062 C 200.273438 83.929688 201.050781 86 201.824219 88.132812 C 199.328125 87.9375 196.796875 87.835938 194.25 87.835938 C 158.136719 87.835938 126.601562 107.496094 109.746094 136.691406 C 109.058594 134.773438 108.390625 132.828125 107.738281 130.847656 C 124.046875 101.460938 155.371094 81.570312 191.335938 81.570312 " fill-opacity="1" fill-rule="evenodd"/><path fill="#ffffff" d="M 226.964844 265.992188 C 215.953125 270.421875 203.933594 272.867188 191.335938 272.867188 C 155.25 272.867188 123.839844 252.839844 107.574219 223.289062 C 124.363281 250.777344 154.625 269.125 189.167969 269.125 C 203.417969 269.125 216.941406 265.996094 229.089844 260.398438 C 228.40625 262.261719 227.695312 264.121094 226.964844 265.992188 Z M 274.027344 129.242188 C 282.21875 143.347656 286.90625 159.734375 286.90625 177.214844 C 286.90625 198.234375 280.128906 217.660156 268.648438 233.441406 C 266.925781 233.542969 265.175781 233.632812 263.398438 233.710938 C 276.738281 217.265625 284.742188 196.308594 284.742188 173.476562 C 284.742188 157.574219 280.851562 142.570312 273.984375 129.375 L 274.027344 129.242188 " fill-opacity="1" fill-rule="evenodd"/><path fill="#ffffff" d="M 248.523438 190.921875 C 239.898438 225.839844 233.210938 256.804688 216.042969 290.246094 C 244.480469 308.722656 268.375 331.917969 292.179688 361.5 C 291.164062 346.40625 289.152344 337.824219 283.429688 319.570312 C 298.539062 315.757812 323.117188 310.21875 338.980469 292.171875 C 338.246094 273.675781 336.257812 257.824219 366.34375 189.984375 C 356.726562 208.144531 334.613281 231.089844 260.882812 233.816406 C 259.320312 222.105469 255.492188 205.714844 248.523438 190.921875 " fill-opacity="1" fill-rule="evenodd"/><path fill="#66c430" d="M 225.625 288.910156 C 255.433594 308.960938 276.523438 332.113281 292.476562 361.472656 C 291.464844 346.378906 289.449219 337.792969 283.726562 319.539062 C 295.527344 316.566406 313.4375 312.347656 328.128906 302.121094 C 330.75 281.402344 324.878906 284.632812 327.953125 265.476562 C 331.496094 243.40625 338.050781 243.148438 342.820312 223.429688 C 325.253906 232.695312 299.882812 240.3125 256.398438 242.539062 C 255.296875 234.300781 253.941406 221.542969 250.300781 210.867188 C 244.710938 239.703125 232.222656 276.066406 225.625 288.910156 " fill-opacity="1" fill-rule="evenodd"/><path fill="#ffffff" d="M 168.761719 126.5625 C 204.695312 125.859375 236.3125 124.308594 273.035156 132.253906 C 283.503906 99.976562 299.707031 70.875 322.09375 40.210938 C 307.789062 45.097656 300.027344 49.265625 283.890625 59.519531 C 276.304688 45.902344 264.59375 23.570312 243.070312 12.910156 C 225.410156 18.40625 210.625 24.429688 137.359375 12.910156 C 157.378906 17.5 185.246094 32.941406 206.964844 103.511719 C 196.058594 108.054688 181.234375 115.996094 168.761719 126.5625 " fill-opacity="1" fill-rule="evenodd"/><path fill="#ffffff" d="M 154.304688 222.105469 C 135.734375 191.308594 118.582031 164.683594 107.097656 128.886719 C 73.933594 135.945312 40.648438 136.457031 2.917969 132.382812 C 14.296875 142.34375 21.78125 146.984375 38.730469 155.839844 C 30.738281 169.226562 17.273438 190.542969 18.800781 214.523438 C 32.390625 227.085938 44.996094 236.886719 71.65625 306.152344 C 65.621094 286.5 65.050781 254.632812 115.265625 200.519531 C 124.640625 207.695312 138.929688 216.582031 154.304688 222.105469 " fill-opacity="1" fill-rule="evenodd"/><path fill="#66c430" d="M 101.445312 136.476562 C 66.199219 143.398438 34.933594 141.953125 2.914062 132.484375 C 14.292969 142.4375 21.777344 147.082031 38.726562 155.9375 C 32.480469 166.394531 22.796875 182.050781 19.632812 199.679688 C 32.417969 216.183594 34.289062 209.742188 45.652344 225.46875 C 58.738281 243.578125 54.285156 248.402344 64.84375 265.71875 C 70.714844 246.734375 83.277344 223.394531 112.457031 191.046875 C 119.050781 196.097656 129.027344 204.15625 139.140625 209.128906 C 122.71875 184.785156 105.859375 150.234375 101.445312 136.476562 " fill-opacity="1" fill-rule="evenodd"/><path fill="#66c430" d="M 269.371094 123.613281 C 281.003906 89.605469 297.886719 63.226562 322.09375 40.210938 C 307.789062 45.097656 300.027344 49.265625 283.890625 59.519531 C 277.964844 48.882812 269.261719 32.664062 255.582031 21.105469 C 234.910156 23.933594 239.554688 28.773438 220.257812 30.757812 C 198.042969 33.046875 196.09375 26.777344 175.835938 27.269531 C 189.324219 41.851562 203.238281 64.410156 216.640625 105.871094 C 208.976562 109.0625 197.015625 113.675781 187.652344 119.957031 C 216.929688 117.894531 255.257812 120.558594 269.371094 123.613281 " fill-opacity="1" fill-rule="evenodd"/><path fill="#0d0d0d" d="M 226.050781 268.292969 C 215.140625 272.507812 203.300781 274.828125 190.941406 274.828125 C 150.886719 274.828125 116.691406 250.535156 101.84375 215.898438 C 102.597656 214.976562 103.359375 214.050781 104.140625 213.113281 C 118.355469 247.128906 152.054688 271.296875 190.941406 271.296875 C 204.019531 271.296875 216.511719 268.5625 227.875 263.640625 C 227.285156 265.191406 226.675781 266.742188 226.050781 268.292969 Z M 274.710938 127.246094 C 283.605469 141.769531 288.734375 158.851562 288.734375 177.222656 C 288.734375 198.074219 282.121094 217.429688 270.894531 233.304688 C 269.292969 233.410156 267.644531 233.5 265.992188 233.589844 C 277.871094 217.832031 284.949219 198.285156 284.949219 177.222656 C 284.949219 160.824219 280.65625 145.351562 273.15625 131.867188 C 273.664062 130.316406 274.179688 128.78125 274.710938 127.246094 Z M 190.941406 80.65625 C 193.699219 80.65625 196.429688 80.777344 199.128906 80.996094 C 199.464844 81.851562 199.800781 82.71875 200.136719 83.597656 C 197.109375 83.296875 194.042969 83.140625 190.941406 83.140625 C 155.472656 83.140625 124.3125 103.246094 108.320312 132.601562 C 107.90625 131.375 107.5 130.132812 107.097656 128.886719 L 106.726562 128.964844 C 123.421875 99.960938 154.800781 80.65625 190.941406 80.65625 " fill-opacity="1" fill-rule="nonzero"/><path fill="#0d0d0d" d="M 195.382812 173.414062 C 197.738281 176.207031 197.28125 182.492188 197.917969 186.613281 C 198.402344 189.777344 196.714844 189.625 195.054688 188.664062 C 193.511719 187.773438 192.558594 189.929688 191.847656 190.898438 C 183.410156 202.382812 191.9375 198.046875 191.261719 201.125 C 190.902344 202.804688 184.671875 203.015625 186.921875 205.5625 L 186.636719 205.34375 C 200.742188 216.554688 186.171875 219.054688 205.488281 230.570312 C 215.886719 236.765625 211.144531 245.136719 205.636719 254 C 204.886719 256.546875 205.074219 259.296875 204.136719 261.078125 C 203.03125 263.1875 201.371094 264.234375 199.957031 266.296875 C 198.980469 267.710938 197.796875 270.398438 196.59375 272.050781 C 196.414062 272.292969 193.871094 273.132812 193.703125 273.304688 C 194.355469 271.964844 197.964844 265.28125 198.269531 264.929688 C 200.445312 262.398438 201.480469 262.601562 202.191406 261.335938 C 204.121094 257.890625 201.535156 256.246094 203.804688 252.222656 C 206.175781 248.03125 207.03125 246.390625 207.925781 243.726562 C 209.757812 238.296875 209.125 235.382812 207.402344 233.8125 C 203.691406 230.429688 194.75 231.1875 191.738281 216.527344 C 189.949219 207.84375 178.980469 205.148438 187.183594 201.046875 C 184.179688 197.515625 188.4375 195.230469 190.074219 190.234375 C 192.382812 183.230469 196.605469 188.722656 196.324219 186.21875 C 195.789062 181.410156 195.605469 178.171875 194.332031 175.554688 C 193.675781 174.191406 190.957031 171.941406 190.082031 174.476562 C 187.441406 182.070312 183.273438 172.132812 179.542969 171.234375 C 165.738281 167.898438 181.679688 160.84375 167.8125 160.578125 C 155.730469 160.335938 161.070312 155.222656 156.644531 155.332031 C 143.84375 155.65625 148.101562 151.953125 144.984375 151.28125 C 130.851562 148.230469 140.554688 145.761719 138.164062 139.589844 C 134.257812 129.492188 135.59375 122.40625 133.910156 121.789062 C 132.070312 124.089844 133.890625 132.589844 132.75 137.191406 C 131.945312 140.429688 130.382812 137.730469 129.105469 136.550781 C 122.429688 130.390625 129.625 121.429688 127.585938 119.070312 C 119.34375 109.535156 138.554688 104.996094 139.890625 96.695312 C 139.953125 96.296875 141.089844 95.332031 141.070312 94.917969 C 144.476562 103.5625 122.0625 109.773438 128.898438 117.980469 C 131.832031 121.496094 124.96875 127.269531 130.855469 135.265625 C 130.65625 128.636719 130.777344 114.324219 136.058594 120.039062 C 139.230469 123.460938 135.824219 129.117188 140.773438 139.226562 C 144.976562 147.804688 132.234375 146.546875 145.589844 148.835938 C 150.132812 149.613281 144.871094 152.800781 156.832031 153.539062 C 163.636719 153.957031 157.285156 158.007812 169.039062 158.554688 C 184.140625 159.257812 168.890625 166.511719 180.265625 169.804688 C 187.125 171.792969 185.792969 180.539062 189.875 172.15625 C 190.546875 170.777344 194.464844 172.316406 195.382812 173.414062 " fill-opacity="1" fill-rule="evenodd"/><path fill="#0d0d0d" d="M 174.136719 126.449219 L 172.355469 126.488281 C 173.386719 126.769531 173.96875 126.933594 174.136719 126.449219 Z M 201.488281 87.214844 C 198.816406 86.074219 196.761719 83.566406 197.550781 89.746094 C 197.949219 92.851562 189.15625 97.730469 188.351562 88.914062 C 188.21875 88.339844 182.828125 88.648438 179.699219 88.066406 C 177.765625 87.710938 176.902344 86.898438 177.054688 86.214844 C 177.558594 83.890625 183.605469 82.222656 188.015625 82.734375 C 182.773438 83.976562 181.375 84.648438 179.871094 85.355469 C 178.390625 86.054688 177.261719 86.511719 179.9375 87.183594 C 183.304688 88.035156 189.859375 86.710938 190.121094 88.226562 C 191.253906 94.621094 195.65625 91.457031 195.898438 89.566406 C 196.21875 87.09375 194.46875 83.34375 199.554688 84.859375 C 199.984375 84.992188 200.382812 85.148438 200.78125 85.300781 C 201.019531 85.933594 201.257812 86.574219 201.488281 87.214844 Z M 196.03125 108.617188 C 196.046875 106.019531 199.085938 106.113281 202.300781 105.558594 C 200.289062 106.484375 198.191406 107.5 196.03125 108.617188 Z M 186.328125 126.1875 L 184.195312 126.234375 C 185.03125 136 193.933594 139.648438 190.222656 126.113281 L 188.773438 126.140625 C 189.480469 128.234375 190.054688 130.574219 189.238281 133.105469 C 186.507812 131.53125 186.417969 129.6875 186.347656 126.628906 C 186.34375 126.476562 186.339844 126.328125 186.328125 126.1875 Z M 172.28125 123.6875 C 173.3125 122.882812 174.359375 122.09375 175.410156 121.320312 C 174.121094 121.09375 172.996094 121.40625 172.503906 122.578125 C 172.339844 122.972656 172.296875 123.355469 172.28125 123.6875 Z M 229.335938 259.71875 C 228.402344 259.484375 227.542969 259.007812 226.746094 259.097656 C 226.515625 265.007812 222.785156 260.230469 214.597656 267.464844 C 212.566406 269.253906 201.6875 272.277344 200.277344 272.898438 C 202.585938 271.503906 205.914062 269.292969 208.167969 267.988281 C 208.945312 266.867188 211.769531 267.109375 213.761719 265.226562 C 219.140625 260.128906 224.890625 261.535156 224.820312 259.554688 C 223.84375 256.242188 227.523438 257.484375 229.257812 257.671875 C 229.46875 257.699219 229.785156 257.59375 230.171875 257.398438 C 229.898438 258.171875 229.621094 258.945312 229.335938 259.71875 Z M 194.074219 168.855469 C 196.988281 170.246094 197.183594 174.753906 200.664062 170.167969 C 201.21875 169.425781 201.660156 168.242188 202.71875 167.082031 C 204.230469 165.425781 213.234375 162.765625 214.214844 163.28125 C 215.460938 163.941406 215.453125 164.0625 217.429688 166.136719 C 227.984375 173.660156 229.734375 161.328125 233.808594 169.183594 C 235.480469 172.402344 234.304688 170.964844 237.429688 172.4375 C 241.898438 174.550781 237.269531 176.683594 249.570312 178.695312 C 261.21875 180.597656 250.347656 190.53125 259.789062 192.105469 C 262.070312 192.484375 263.582031 193.355469 263.902344 193.972656 C 265.484375 197.023438 265.894531 195.703125 269.585938 196.4375 C 270.253906 196.570312 270.898438 196.75 271.507812 196.984375 C 272.628906 197.417969 271.902344 198.425781 272.691406 199.207031 C 273.523438 200.03125 275.804688 199.632812 276.09375 200.851562 C 276.292969 201.6875 276.53125 203.03125 276.273438 204.660156 C 274.351562 216.625 266.425781 217.640625 262.503906 230.054688 C 262.023438 231.585938 261.574219 232.8125 261.148438 233.804688 L 260.882812 233.816406 C 260.703125 232.492188 260.496094 231.097656 260.261719 229.660156 L 260.355469 229.453125 C 264.800781 219.539062 274.996094 209.90625 273.535156 201.578125 C 271.851562 201.277344 271.253906 200.769531 270.589844 199.335938 C 268.613281 198.742188 268.304688 198.621094 267.226562 198.515625 C 260.480469 197.84375 265.3125 194.78125 260.558594 194.570312 C 246.019531 193.929688 259.566406 182.738281 249.800781 180.992188 C 235.304688 178.40625 244.269531 177.550781 235.960938 174.050781 C 232.34375 172.523438 232.121094 171.1875 231.90625 170.265625 C 231.164062 167.136719 229.886719 169.128906 229.09375 169.5625 C 220.457031 174.242188 216.179688 165.757812 213.597656 165.199219 C 211.851562 164.828125 204.832031 167.488281 203.980469 168.382812 C 201.851562 170.613281 200.226562 173.84375 199.488281 174.605469 C 198.40625 175.738281 197.523438 173.460938 195.023438 171.597656 C 191.726562 169.140625 190.8125 170.691406 187.125 170.875 C 183.527344 171.054688 180.441406 169.53125 182.710938 159.988281 C 186.179688 145.421875 163.128906 163.253906 170.105469 150.777344 C 170.738281 149.644531 173.042969 146.410156 174.023438 143.578125 C 174.722656 141.5625 175.15625 140.632812 172.539062 140.902344 C 169.996094 141.160156 168.511719 143.296875 167.929688 145.90625 C 167.578125 147.488281 165.496094 148.449219 163.394531 148.699219 C 159.933594 149.101562 159.609375 151.128906 157.421875 149.460938 C 153.539062 146.492188 153.101562 144.515625 152.300781 141.933594 C 149.914062 134.214844 154.894531 135.429688 156.085938 128.535156 C 156.945312 123.589844 163.972656 122.332031 169.207031 124.257812 C 169.925781 124.519531 170.472656 124.691406 170.894531 124.792969 C 170.449219 125.15625 170 125.519531 169.566406 125.886719 C 165.25 125.324219 159.113281 125.1875 158.421875 128.921875 C 157.066406 136.277344 149.070312 138.855469 156.355469 145.503906 C 160.222656 149.027344 159.484375 147.988281 162.242188 146.972656 C 171.757812 143.457031 163.414062 143.382812 169.132812 140.757812 C 182.316406 134.710938 175.679688 144.46875 171.46875 150.929688 C 169.738281 153.574219 170.332031 154.175781 173.25 153.515625 C 180.136719 151.96875 186.832031 149.8125 184.730469 159.28125 C 183.667969 164.085938 182.648438 167.589844 183.734375 168.804688 C 186.128906 171.488281 190.75 167.269531 194.074219 168.855469 " fill-opacity="1" fill-rule="evenodd"/><path fill="#0d0d0d" d="M 183.640625 141.191406 C 186.019531 141.164062 190.164062 138.097656 193.855469 143.328125 C 195.242188 145.292969 194.839844 145.925781 197.644531 146.109375 C 199.3125 146.21875 206.054688 147.535156 203.742188 144.941406 C 201.324219 142.230469 188.917969 136.1875 183.273438 139.449219 C 182.386719 139.964844 181.640625 141.21875 183.640625 141.191406 Z M 182.269531 138.796875 C 186.800781 133.335938 200.109375 139.65625 204.785156 144.359375 C 207.996094 147.585938 206.539062 149.460938 194.878906 146.988281 C 190.789062 146.121094 196.761719 140.894531 182.769531 142.34375 C 181.949219 142.425781 181.160156 142.148438 181.070312 141.542969 C 180.945312 140.71875 181.742188 139.429688 182.269531 138.796875 " fill-opacity="1" fill-rule="evenodd"/><path fill="#0d0d0d" d="M 212.257812 151.527344 C 214.160156 149.632812 216.707031 150.855469 218.152344 151.394531 C 219.210938 151.792969 219.707031 151.648438 218.800781 150.464844 C 214.097656 144.277344 211.117188 147.304688 208.484375 149.679688 C 207.085938 150.945312 207.667969 151.132812 208.464844 151.378906 C 209.988281 151.859375 211.546875 152.234375 212.257812 151.527344 Z M 212.335938 152.949219 C 211.011719 153.785156 208.390625 152.964844 207.34375 152.25 C 205.585938 151.039062 207.015625 149.390625 209.515625 146.902344 C 216.484375 139.945312 225.566406 156.90625 216.574219 152.78125 C 214.320312 151.742188 214.117188 151.808594 212.335938 152.949219 " fill-opacity="1" fill-rule="evenodd"/><path fill="#0d0d0d" d="M 195.046875 149.460938 C 195.046875 149.460938 198.695312 148.949219 200.613281 150.625 C 202.539062 152.296875 198.140625 152.144531 197.070312 151.585938 C 196.011719 151.027344 193.328125 149.660156 195.046875 149.460938 " fill-opacity="1" fill-rule="evenodd"/><path fill="#0d0d0d" d="M 224.328125 150.042969 C 224.328125 150.042969 221.441406 148.824219 221.441406 150.144531 C 221.441406 151.460938 223.011719 151.765625 224.578125 151.414062 C 226.152344 151.054688 225.488281 150.398438 224.328125 150.042969 " fill-opacity="1" fill-rule="evenodd"/><path fill="#0d0d0d" d="M 232.476562 154.804688 C 232.476562 154.804688 231.816406 155.714844 232.726562 155.816406 C 233.636719 155.921875 233.285156 153.285156 232.476562 154.804688 " fill-opacity="1" fill-rule="evenodd"/><path fill="#0d0d0d" d="M 233.230469 156.777344 C 233.230469 156.777344 233.03125 157.992188 233.894531 157.945312 C 234.75 157.894531 233.230469 155.257812 233.230469 156.777344 " fill-opacity="1" fill-rule="evenodd"/><path fill="#0d0d0d" d="M 234.09375 159.414062 C 234.09375 159.414062 234.5 160.324219 234.855469 159.820312 C 235.207031 159.308594 234.046875 157.535156 234.09375 159.414062 " fill-opacity="1" fill-rule="evenodd"/><path fill="#0d0d0d" d="M 234.453125 161.339844 C 234.453125 161.339844 235.109375 161.339844 235.109375 160.78125 C 235.109375 160.222656 234.585938 160.414062 234.433594 160.820312 C 234.28125 161.222656 234.183594 161.429688 234.453125 161.339844 " fill-opacity="1" fill-rule="evenodd"/><path fill="#0d0d0d" d="M 235.574219 168.011719 C 235.574219 168.011719 234.460938 168.0625 234.667969 169.074219 C 234.867188 170.085938 234.964844 170.746094 236.132812 170.1875 C 237.296875 169.628906 237.042969 167.550781 235.574219 168.011719 " fill-opacity="1" fill-rule="evenodd"/><path fill="#0d0d0d" d="M 162.636719 194.691406 C 162.636719 194.691406 163.671875 193.371094 163.167969 192.714844 C 162.664062 192.054688 162.132812 192.535156 161.980469 192.867188 C 161.828125 193.191406 161.953125 195.75 162.636719 194.691406 " fill-opacity="1" fill-rule="evenodd"/><path fill="#0d0d0d" d="M 90.820312 231.546875 C 98.429688 237.171875 108.625 238.714844 118.085938 239.308594 C 118.792969 240.140625 119.539062 240.996094 120.34375 241.878906 C 107.949219 241.074219 96.898438 238.949219 89.359375 234.34375 C 89.96875 232.886719 90.265625 232.402344 90.820312 231.546875 " fill-opacity="1" fill-rule="nonzero"/><path fill="#0d0d0d" d="M 73.171875 304.886719 C 74.546875 308.488281 88.566406 327.582031 173.554688 321.613281 C 162.195312 309.191406 150.667969 291.480469 146.09375 275.902344 C 147.667969 272.136719 149.664062 268.480469 151.941406 264.949219 C 152.859375 265.363281 153.789062 265.769531 154.734375 266.160156 C 152.871094 269.269531 151.199219 272.546875 149.773438 276.054688 C 154.847656 294.960938 166.457031 309.355469 178.5625 324.238281 C 169.734375 324.910156 87.117188 330.90625 71.550781 309.105469 C 71.015625 308.355469 70.472656 307.570312 70.074219 306.734375 C 69.933594 306.328125 69.785156 305.925781 69.644531 305.507812 C 69.765625 302.066406 70.132812 297.777344 70.464844 294.457031 C 71.125 298.242188 72.035156 301.769531 73.171875 304.886719 " fill-opacity="1" fill-rule="nonzero"/><path fill="#0d0d0d" d="M 170.863281 83.980469 C 177.359375 74.757812 184.261719 67.347656 191.496094 63.710938 C 192.273438 64.792969 192.382812 66.792969 192.246094 66.851562 C 184.835938 70.117188 179.058594 76.515625 174.265625 83.25 C 173.179688 83.460938 172.046875 83.703125 170.863281 83.980469 " fill-opacity="1" fill-rule="nonzero"/><g clip-path="url(#ec8c890afa)"><path fill="#0d0d0d" d="M 137.695312 14.851562 C 133.894531 14.246094 110.359375 16.84375 73.027344 93.488281 C 89.460938 89.855469 110.550781 88.71875 126.3125 92.546875 C 128.492188 95.394531 130.425781 98.488281 132.160156 101.734375 C 131.261719 102.402344 130.441406 103.046875 129.703125 103.640625 C 128.128906 100.910156 126.355469 98.246094 124.347656 95.660156 C 105.445312 90.605469 87.183594 93.472656 68.257812 96.523438 C 72.089844 88.527344 108.210938 13.929688 134.851562 11.335938 C 135.769531 11.246094 136.722656 11.171875 137.648438 11.246094 C 139.8125 11.621094 142.046875 12.140625 144.324219 12.789062 C 144.324219 14.753906 154.324219 19.503906 144.359375 16.46875 C 142.0625 15.769531 139.828125 15.222656 137.695312 14.851562 " fill-opacity="1" fill-rule="nonzero"/></g><path fill="#0d0d0d" d="M 284.707031 198.953125 C 293.765625 208.953125 300.851562 219 303.085938 228.203125 L 300.058594 229.007812 C 298.492188 218.976562 291.527344 210.160156 284.796875 202.726562 C 284.507812 202.402344 284.675781 199.4375 284.707031 198.953125 " fill-opacity="1" fill-rule="nonzero"/><path fill="#0d0d0d" d="M 364.382812 189.804688 C 365.953125 186.289062 369.53125 162.863281 305.21875 106.945312 C 304.472656 123.761719 300.109375 144.445312 292.339844 158.699219 C 290.085938 159.625 287.757812 160.414062 285.371094 161.085938 C 285.21875 159.925781 285.054688 158.84375 284.894531 157.855469 C 286.546875 157.300781 288.199219 156.683594 289.84375 155.988281 C 299.617188 139.023438 301.578125 120.632812 303.527344 101.539062 C 310.25 107.3125 372.902344 161.539062 368.507812 187.96875 C 368.355469 188.878906 368.183594 189.816406 367.871094 190.6875 C 367.757812 190.941406 367.636719 191.1875 367.519531 191.441406 L 362.640625 193.441406 C 363.289062 192.289062 363.863281 190.929688 364.382812 189.804688 " fill-opacity="1" fill-rule="nonzero"/><g clip-path="url(#366001e800)"><path fill="#0d0d0d" d="M 247.875 187.652344 C 255.535156 200.875 258.808594 215.65625 261.921875 232.074219 C 302.507812 229.144531 347.8125 224.316406 364.855469 189.195312 L 367.882812 190.664062 C 353.695312 220.632812 336.800781 263.058594 340.710938 292.816406 C 319.054688 311.632812 305.707031 316.867188 284.761719 320.507812 C 289.429688 332.917969 293.460938 348.253906 292.976562 364.339844 C 270.578125 336.511719 245.222656 310.921875 214.40625 290.585938 C 230.210938 259.53125 239.832031 223.648438 247.875 187.652344 Z M 248.703125 193 C 240.027344 237.507812 230.507812 267.148438 217.902344 290.042969 C 236.738281 300.347656 264.3125 325.273438 290.871094 357.796875 C 290.101562 344.007812 285.601562 331.46875 280.886719 318.582031 C 302.292969 313.945312 324.515625 306.925781 338.367188 291.953125 C 336.238281 280.035156 334.308594 258.75 361.273438 199.484375 C 342.273438 227.601562 293.125 234.722656 259.414062 235.582031 C 257.617188 222.054688 254.015625 205.585938 248.703125 193 " fill-opacity="1" fill-rule="nonzero"/></g><path fill="#0d0d0d" d="M 157.074219 223.957031 C 142.320312 220.03125 129.558594 211.898438 115.757812 202.488281 C 89.128906 233.285156 60.503906 268.761719 73.265625 305.652344 L 70.089844 306.753906 C 58.945312 275.527344 40.910156 233.570312 17.125 215.296875 C 19.148438 186.664062 24.882812 173.519531 37.121094 156.121094 C 25.058594 150.648438 11.371094 142.660156 0.339844 130.941406 C 35.84375 134.773438 71.855469 134.921875 108.011719 127.496094 C 118.78125 160.632812 137.332031 192.820312 157.074219 223.957031 Z M 152.710938 220.765625 C 127.398438 183.15625 113.1875 155.457031 105.925781 130.347656 C 85.328125 136.394531 48.210938 138.28125 6.460938 134.078125 C 16.746094 143.277344 28.785156 148.964844 41.226562 154.742188 C 29.363281 173.164062 18.613281 193.859375 19.398438 214.25 C 29.320312 221.167969 45.722656 234.851562 68.527344 295.84375 C 62.101562 262.519531 91.820312 222.699219 115.050781 198.238281 C 125.878906 206.527344 140.058594 215.625 152.710938 220.765625 " fill-opacity="1" fill-rule="nonzero"/><g clip-path="url(#5e29be84ab)"><path fill="#0d0d0d" d="M 165.773438 128.035156 C 176.546875 117.207031 189.96875 110.210938 205.007812 102.960938 C 191.679688 64.480469 175.292969 21.9375 136.984375 14.550781 L 137.617188 11.246094 C 170.214844 17.199219 215.539062 22.550781 243.238281 11.066406 C 267.011719 27.136719 275.515625 38.6875 284.453125 57.988281 C 295.222656 50.265625 308.972656 42.398438 324.632812 38.703125 C 303.570312 67.554688 285.429688 98.695312 273.78125 133.742188 C 239.71875 126.507812 202.589844 126.492188 165.773438 128.035156 Z M 170.714844 125.851562 C 215.921875 122.714844 246.992188 124.246094 272.351562 130.507812 C 277.421875 109.636719 294.34375 76.527344 318.855469 42.429688 C 305.75 46.746094 294.8125 54.339844 283.59375 62.234375 C 273.582031 42.742188 261.054688 23.078125 243.015625 13.5625 C 232.066406 18.699219 212.023438 26.074219 147.839844 15.347656 C 179.894531 26.4375 199.488281 72.105469 209.046875 104.472656 C 196.453125 109.710938 181.492188 117.460938 170.714844 125.851562 " fill-opacity="1" fill-rule="nonzero"/></g></svg>