<svg xmlns="http://www.w3.org/2000/svg" xmlns:xlink="http://www.w3.org/1999/xlink" width="240" zoomAndPan="magnify" viewBox="0 0 180 48" height="64" preserveAspectRatio="xMidYMid meet" version="1.0"><defs><g/><clipPath id="7fcf8baf87"><path d="M 30 23 L 51 23 L 51 47.019531 L 30 47.019531 Z M 30 23 " clip-rule="nonzero"/></clipPath><clipPath id="5905930d1f"><path d="M 1.835938 15 L 23 15 L 23 40 L 1.835938 40 Z M 1.835938 15 " clip-rule="nonzero"/></clipPath></defs><path fill="#009748" d="M 11.386719 39.285156 C 11.40625 39.320312 12.964844 42.4375 25.261719 41.496094 C 23.664062 39.535156 22.199219 37.738281 21.554688 35.265625 C 21.761719 34.746094 22.007812 34.265625 22.28125 33.8125 C 19.847656 32.769531 18.796875 31.632812 17.78125 30.566406 C 15.570312 30.429688 13.855469 29.917969 13.101562 28.875 C 10.496094 31.03125 10.519531 36.929688 11.386719 39.285156 " fill-opacity="1" fill-rule="evenodd"/><path fill="#006b30" d="M 21.644531 35.144531 C 20.355469 34.585938 17.710938 33.433594 16.171875 30.375 C 16.675781 30.5 17.195312 30.53125 17.566406 30.515625 C 17.566406 30.515625 19.816406 33.0625 22.371094 33.902344 L 21.644531 35.144531 " fill-opacity="1" fill-rule="evenodd"/><path fill="#006b30" d="M 11.386719 39.285156 C 12.351562 40.960938 15.785156 41.289062 17.554688 41.476562 C 15.3125 38.066406 13.671875 33.683594 14.6875 29.960938 C 14.277344 29.785156 14.011719 29.613281 13.828125 29.503906 C 10.9375 33.332031 10.519531 36.929688 11.386719 39.285156 " fill-opacity="1" fill-rule="evenodd"/><path fill="#009748" d="M 20.136719 0.25 C 20.097656 0.25 16.617188 0.0429688 11.285156 11.164062 C 13.78125 10.761719 16.070312 10.390625 18.535156 11.070312 C 18.835938 11.449219 19.09375 11.839844 19.324219 12.238281 C 20.746094 11.214844 22.242188 10.210938 24.8125 9.683594 C 25.9375 8.097656 27.125 7.0625 28.292969 6.945312 C 27.730469 3.605469 22.609375 0.679688 20.136719 0.25 " fill-opacity="1" fill-rule="evenodd"/><path fill="#006b30" d="M 18.753906 11.25 C 18.753906 11.25 21.90625 8.652344 25.636719 8.582031 C 25.636719 8.582031 25.113281 9.140625 24.851562 9.664062 C 24.851562 9.664062 21.296875 10.449219 19.292969 12.242188 L 18.753906 11.25 " fill-opacity="1" fill-rule="evenodd"/><path fill="#006b30" d="M 20.136719 0.25 C 18.203125 0.25 16.203125 3.058594 15.15625 4.496094 C 19.226562 4.261719 23.84375 5.03125 26.5625 7.773438 C 26.917969 7.503906 27.195312 7.363281 27.386719 7.257812 C 25.515625 2.839844 22.609375 0.679688 20.136719 0.25 " fill-opacity="1" fill-rule="evenodd"/><path fill="#009748" d="M 50.636719 23.824219 C 50.648438 23.785156 51.75 20.476562 42.390625 12.445312 C 42.136719 14.964844 41.898438 17.269531 40.605469 19.472656 C 40.332031 19.589844 40.058594 19.695312 39.785156 19.78125 C 40.144531 21.328125 40.230469 23.421875 39.632812 25.113281 C 41.296875 26.902344 42.285156 28.609375 42.0625 29.96875 C 45.433594 30.285156 49.585938 26.097656 50.636719 23.824219 " fill-opacity="1" fill-rule="evenodd"/><path fill="#006b30" d="M 40.84375 19.015625 C 41.140625 20.042969 42.070312 22.835938 40.628906 26.277344 C 40.359375 25.902344 40.058594 25.460938 39.6875 25.226562 C 39.871094 24.378906 40.273438 22.363281 39.839844 19.734375 L 40.683594 19.511719 L 40.84375 19.015625 " fill-opacity="1" fill-rule="evenodd"/><path fill="#006b30" d="M 50.636719 23.824219 C 51.140625 21.953125 48.945312 19.292969 47.828125 17.910156 C 47 21.90625 45.0625 26.164062 41.710938 28.082031 C 41.878906 28.492188 41.945312 28.800781 41.996094 29.011719 C 46.746094 28.347656 49.585938 26.097656 50.636719 23.824219 " fill-opacity="1" fill-rule="evenodd"/><path fill="#05a1e6" d="M 27.328125 9.460938 C 27.703125 9.460938 28.074219 9.476562 28.441406 9.511719 C 28.773438 10.363281 29.09375 11.292969 29.410156 12.3125 C 27.957031 12.917969 25.980469 13.972656 24.320312 15.378906 C 29.105469 15.285156 33.316406 15.082031 38.210938 16.136719 C 38.25 16.019531 38.289062 15.898438 38.328125 15.78125 C 39.425781 17.664062 40.058594 19.855469 40.058594 22.191406 C 40.058594 24.957031 39.175781 27.515625 37.679688 29.601562 C 37.324219 29.625 36.964844 29.644531 36.589844 29.65625 C 36.382812 28.097656 35.875 25.914062 34.945312 23.945312 C 34.070312 27.484375 33.34375 30.71875 32.039062 34.023438 C 30.582031 34.605469 28.992188 34.925781 27.328125 34.925781 C 22.027344 34.925781 17.484375 31.683594 15.566406 27.074219 C 16.058594 26.480469 16.601562 25.863281 17.195312 25.226562 C 18.445312 26.179688 20.347656 27.363281 22.394531 28.097656 C 19.972656 24.085938 17.734375 20.605469 16.207031 15.996094 C 18.382812 12.097656 22.546875 9.460938 27.328125 9.460938 " fill-opacity="1" fill-rule="evenodd"/><path fill="#115fa2" d="M 32.039062 34.023438 C 30.582031 34.605469 28.992188 34.925781 27.328125 34.925781 C 22.027344 34.925781 17.484375 31.683594 15.566406 27.074219 C 15.683594 26.933594 15.804688 26.789062 15.929688 26.644531 C 18.339844 28.445312 21.328125 29.515625 24.570312 29.515625 C 28.445312 29.515625 31.96875 27.988281 34.5625 25.5 C 33.84375 28.445312 33.152344 31.207031 32.039062 34.023438 Z M 38.910156 16.902344 C 39.644531 18.511719 40.058594 20.304688 40.058594 22.191406 C 40.058594 24.957031 39.175781 27.515625 37.679688 29.601562 C 37.324219 29.625 36.964844 29.644531 36.589844 29.65625 C 36.410156 28.304688 36.003906 26.488281 35.296875 24.75 C 37.226562 22.613281 38.527344 19.902344 38.910156 16.902344 " fill-opacity="1" fill-rule="evenodd"/><path fill="#fddf4c" d="M 19.382812 15.9375 C 19.382812 15.9375 19.425781 14.738281 19.636719 14.632812 C 19.84375 14.527344 19.855469 14.730469 19.914062 15.097656 C 19.976562 15.464844 20.125 16.714844 20.34375 16.996094 C 20.558594 17.273438 20.523438 17.738281 20.351562 17.9375 C 20.175781 18.140625 20.308594 18.386719 20.761719 18.402344 C 21.214844 18.421875 21.40625 18.664062 21.546875 18.855469 C 21.683594 19.050781 22.46875 19.066406 22.46875 19.066406 C 22.46875 19.066406 22.933594 18.542969 22.59375 18.054688 C 22.25 17.5625 22.191406 17.511719 22.148438 17.160156 C 22.101562 16.8125 22.410156 16.503906 22.582031 16.136719 C 22.757812 15.769531 23.851562 13.84375 23.976562 13.265625 C 24.097656 12.691406 23.453125 10.84375 22.597656 10.84375 C 21.746094 10.84375 20.480469 11.746094 20.480469 11.746094 C 20.480469 11.746094 20.140625 12.203125 19.878906 12.421875 C 19.617188 12.640625 19.078125 12.960938 18.816406 13.410156 C 18.554688 13.855469 18.851562 14.074219 18.980469 14.421875 C 19.113281 14.773438 18.589844 15.683594 18.9375 16.242188 C 19.289062 16.800781 19.390625 16.714844 19.390625 16.714844 L 19.382812 15.9375 " fill-opacity="1" fill-rule="evenodd"/><path fill="#fddf4c" d="M 30.265625 34.003906 C 30.265625 34.003906 29.714844 34.300781 29.175781 34.574219 C 28.632812 34.84375 27.945312 34.6875 27.945312 34.6875 C 27.945312 34.6875 28.3125 33.9375 28.476562 33.769531 C 28.644531 33.601562 28.9375 33.480469 28.984375 33.007812 C 29.027344 32.535156 28.957031 32.457031 29.183594 32.074219 C 29.410156 31.6875 29.847656 30.871094 29.847656 30.554688 C 29.847656 30.242188 29.835938 29.753906 29.34375 29.445312 C 28.851562 29.132812 28.164062 28.949219 27.789062 28.179688 C 27.414062 27.410156 27.5625 27.0625 27.167969 26.5625 C 26.777344 26.0625 26.324219 25.785156 26.558594 25.574219 C 26.792969 25.363281 27.039062 25.292969 27.039062 25.292969 C 27.039062 25.292969 26.707031 25.121094 26.777344 24.867188 C 26.847656 24.613281 27.101562 24.316406 27.214844 24.007812 C 27.328125 23.703125 27.484375 23.457031 27.78125 23.492188 C 28.074219 23.527344 28.121094 23.554688 28.109375 23.371094 C 28.101562 23.1875 28.121094 22.121094 27.886719 21.839844 C 27.648438 21.558594 27.851562 21.261719 28.023438 21.4375 C 28.199219 21.613281 28.234375 21.777344 28.398438 21.507812 C 28.566406 21.234375 28.914062 20.816406 29.140625 20.722656 C 29.367188 20.625 30.230469 20.273438 30.359375 20.4375 C 30.492188 20.597656 31.320312 21.171875 31.644531 21.140625 C 31.964844 21.109375 32.5625 20.863281 32.5625 20.863281 C 32.5625 20.863281 32.765625 20.847656 32.925781 21.195312 C 33.082031 21.546875 33.316406 21.53125 33.546875 21.691406 C 33.777344 21.851562 33.941406 22.199219 34.164062 22.292969 C 34.382812 22.390625 35.390625 22.453125 35.59375 22.679688 C 35.792969 22.90625 35.75 23.589844 35.75 23.816406 C 35.75 24.042969 35.921875 24.183594 36.28125 24.210938 C 36.636719 24.238281 36.960938 24.351562 37.023438 24.683594 C 37.082031 25.015625 37.710938 24.699219 37.875 24.875 C 38.042969 25.050781 38.164062 25.226562 38.347656 25.285156 C 38.53125 25.347656 38.539062 25.523438 38.363281 26.132812 C 38.191406 26.746094 37.492188 27.558594 37.25 28.023438 C 37.003906 28.488281 36.804688 28.75 36.648438 29.125 C 36.613281 29.203125 36.582031 29.285156 36.550781 29.371094 C 36.320312 27.839844 35.816406 25.800781 34.945312 23.945312 C 34.167969 27.097656 33.507812 30.003906 32.449219 32.9375 C 32.09375 32.9375 31.925781 32.839844 31.917969 33.085938 C 31.910156 33.335938 31.582031 33.410156 31.128906 33.515625 C 30.675781 33.621094 30.613281 33.855469 30.265625 34.003906 " fill-opacity="1" fill-rule="evenodd"/><path fill="#e4ac30" d="M 35.296875 24.746094 C 35.492188 24.53125 35.683594 24.304688 35.867188 24.078125 C 35.953125 24.152344 36.089844 24.195312 36.28125 24.210938 C 36.636719 24.238281 36.960938 24.351562 37.023438 24.683594 C 37.082031 25.015625 37.710938 24.699219 37.875 24.875 C 38.042969 25.050781 38.164062 25.226562 38.347656 25.285156 C 38.53125 25.347656 38.539062 25.523438 38.363281 26.132812 C 38.191406 26.746094 37.492188 27.558594 37.25 28.023438 C 37.003906 28.488281 36.804688 28.75 36.648438 29.125 C 36.613281 29.203125 36.582031 29.285156 36.550781 29.371094 C 36.351562 28.058594 35.957031 26.371094 35.296875 24.746094 Z M 30.265625 34.003906 C 30.265625 34.003906 29.714844 34.300781 29.175781 34.574219 C 28.632812 34.84375 27.945312 34.6875 27.945312 34.6875 C 27.945312 34.6875 28.3125 33.9375 28.476562 33.769531 C 28.644531 33.601562 28.9375 33.480469 28.984375 33.007812 C 29.027344 32.535156 28.957031 32.457031 29.183594 32.074219 C 29.410156 31.6875 29.847656 30.871094 29.847656 30.554688 C 29.847656 30.242188 29.835938 29.753906 29.34375 29.445312 C 29.09375 29.285156 28.789062 29.160156 28.503906 28.972656 C 30.808594 28.320312 32.878906 27.113281 34.5625 25.5 C 33.9375 28.066406 33.332031 30.492188 32.449219 32.9375 C 32.09375 32.9375 31.925781 32.839844 31.917969 33.085938 C 31.910156 33.335938 31.582031 33.410156 31.128906 33.515625 C 30.675781 33.621094 30.613281 33.855469 30.265625 34.003906 " fill-opacity="1" fill-rule="evenodd"/><path fill="#8cd02f" d="M 27.054688 15.324219 C 26.863281 15.324219 26.667969 15.332031 26.476562 15.335938 C 26.492188 15.40625 26.507812 15.472656 26.515625 15.527344 C 26.550781 15.71875 26.734375 16.445312 27.039062 16.363281 C 27.292969 16.300781 27.203125 15.84375 27.054688 15.324219 Z M 19.96875 14.851562 C 19.96875 14.851562 20.421875 14.292969 20.464844 14.765625 C 20.507812 15.238281 20.480469 15.777344 20.71875 16.382812 C 20.953125 16.984375 21.300781 17.40625 21.378906 17.738281 C 21.457031 18.070312 21.808594 18.535156 22.148438 18.59375 C 22.488281 18.65625 22.347656 18.054688 22.164062 17.914062 C 21.980469 17.773438 21.597656 17.363281 21.773438 16.984375 C 21.945312 16.609375 22.050781 16.382812 21.832031 16.214844 C 21.617188 16.050781 22.113281 16.007812 21.902344 15.699219 C 21.695312 15.394531 21.308594 14.921875 22.058594 14.695312 C 22.808594 14.46875 22.980469 13.859375 22.597656 13.859375 C 22.214844 13.859375 22.492188 13.230469 22.945312 13.023438 C 23.398438 12.8125 22.980469 12.832031 22.945312 12.292969 C 22.910156 11.75 22.546875 12.007812 22.398438 11.703125 C 22.25 11.398438 22.207031 11.171875 21.929688 11.457031 C 21.648438 11.746094 21.257812 11.808594 20.996094 11.84375 C 20.734375 11.878906 20.5 12.125 20.351562 12.324219 C 20.203125 12.527344 19.90625 12.769531 19.6875 13.121094 C 19.472656 13.46875 19.523438 13.707031 19.382812 13.914062 C 19.242188 14.125 19.183594 14.929688 19.183594 15.191406 C 19.183594 15.457031 19.269531 15.761719 19.347656 15.875 L 19.367188 16.722656 C 19.367188 16.722656 19.007812 16.511719 18.9375 16.269531 C 18.867188 16.023438 18.746094 15.578125 18.878906 15.089844 C 19.007812 14.597656 19.027344 14.398438 18.878906 14.195312 C 18.730469 13.996094 18.6875 13.515625 18.902344 13.226562 C 19.121094 12.9375 19.574219 12.710938 19.921875 12.367188 C 20.273438 12.027344 20.492188 11.851562 20.535156 11.503906 C 20.535156 11.503906 21.371094 10.855469 22.898438 10.25 C 22.898438 10.25 24.703125 9.597656 26.246094 9.5625 C 26.246094 9.5625 25.484375 9.894531 25.535156 10.019531 C 25.585938 10.148438 25.792969 10.25 26.09375 10.25 C 26.394531 10.25 27.015625 10.226562 27.03125 10.316406 C 27.042969 10.410156 27.179688 10.980469 27.523438 10.894531 C 27.867188 10.808594 28.039062 10.691406 28.039062 10.476562 C 28.039062 10.253906 28.011719 9.882812 28.183594 9.882812 C 28.3125 9.882812 28.484375 9.984375 28.640625 10.039062 C 28.902344 10.742188 29.160156 11.5 29.410156 12.3125 C 29.121094 12.433594 28.808594 12.570312 28.484375 12.726562 C 28.289062 12.742188 28.121094 12.78125 28.089844 12.921875 C 26.949219 13.5 25.675781 14.269531 24.527344 15.207031 C 24.175781 15.144531 23.542969 15.140625 23.246094 15.261719 C 22.90625 15.402344 22.835938 15.527344 22.757812 15.726562 C 22.679688 15.925781 22.539062 16.285156 22.382812 16.496094 C 22.226562 16.707031 22.015625 16.933594 22.261719 17.519531 C 22.503906 18.105469 22.886719 18.375 23.113281 18.332031 C 23.34375 18.289062 23.742188 18.238281 23.925781 18.085938 C 24.109375 17.9375 24.179688 17.746094 24.230469 17.589844 C 24.28125 17.433594 24.589844 17.195312 24.953125 17.179688 C 25.320312 17.160156 25.269531 17.257812 25.15625 17.617188 C 25.042969 17.972656 24.875 18.191406 24.726562 18.394531 C 24.578125 18.59375 24.214844 19.242188 24.695312 19.121094 C 25.171875 18.996094 26.253906 18.707031 26.289062 19.101562 C 26.324219 19.496094 26.273438 19.820312 26.226562 20.273438 C 26.183594 20.730469 26.109375 21.171875 26.539062 21.179688 C 26.964844 21.1875 27.183594 21.097656 27.425781 21.097656 C 27.671875 21.097656 27.941406 21.359375 28.105469 21.53125 C 28.105469 21.53125 28.167969 21.964844 27.90625 21.863281 C 27.644531 21.757812 27.667969 21.464844 27.414062 21.511719 C 27.160156 21.558594 27.15625 21.632812 27 21.835938 C 26.84375 22.035156 26.777344 22.117188 26.519531 21.832031 C 26.261719 21.546875 26.089844 21.289062 25.617188 21.144531 C 25.148438 21 25.101562 20.984375 25.113281 20.535156 C 25.121094 20.089844 25.199219 19.863281 24.746094 19.835938 C 24.292969 19.8125 23.421875 19.8125 23.203125 19.476562 C 22.984375 19.148438 22.984375 19.03125 22.503906 19.03125 C 22.023438 19.03125 21.625 18.996094 21.441406 18.707031 C 21.257812 18.421875 20.96875 18.367188 20.683594 18.367188 C 20.394531 18.367188 20.160156 18.175781 20.351562 17.894531 C 20.542969 17.617188 20.535156 17.351562 20.324219 16.871094 C 20.117188 16.390625 20.003906 15.761719 19.96875 14.851562 " fill-opacity="1" fill-rule="evenodd"/><path fill="#8cd02f" d="M 27.167969 17.386719 C 27.167969 17.386719 26.847656 17.335938 26.386719 17.398438 C 25.921875 17.457031 26.027344 17.308594 26.113281 17.136719 C 26.203125 16.960938 26.785156 16.730469 27.507812 16.96875 C 28.234375 17.203125 29.234375 17.722656 29.140625 18.042969 C 29.042969 18.367188 28.476562 18.078125 28.144531 18.070312 C 27.816406 18.0625 27.753906 17.9375 27.632812 17.738281 C 27.507812 17.535156 27.335938 17.414062 27.167969 17.386719 " fill-opacity="1" fill-rule="evenodd"/><path fill="#8cd02f" d="M 29.480469 18.691406 C 29.480469 18.691406 29.679688 18.847656 29.917969 18.832031 C 30.152344 18.8125 30.203125 18.648438 30.4375 18.675781 C 30.675781 18.699219 31.058594 18.9375 31.101562 18.804688 C 31.144531 18.675781 31.050781 18.429688 30.859375 18.261719 C 30.664062 18.097656 30.359375 17.878906 30.167969 17.972656 C 29.976562 18.070312 29.289062 18.535156 29.480469 18.691406 " fill-opacity="1" fill-rule="evenodd"/><path fill="#8cd02f" d="M 30.25 34.058594 C 30.25 34.058594 29.082031 34.199219 29.550781 33.449219 C 30.023438 32.699219 30.457031 32.664062 30.527344 31.8125 C 30.597656 30.957031 31.121094 30.714844 31.382812 30.3125 C 31.644531 29.910156 31.398438 29.476562 30.71875 29.164062 C 30.039062 28.847656 30.542969 28.480469 29.65625 28.429688 C 28.765625 28.378906 28.558594 28.097656 28.277344 27.558594 C 28 27.019531 28.1875 26.683594 27.9375 26.371094 C 27.730469 26.113281 27.714844 25.359375 27.34375 25.285156 C 27.25 25.265625 27.109375 25.320312 27.011719 25.277344 C 26.507812 25.050781 26.867188 24.65625 27.179688 24.070312 C 27.488281 23.484375 27.6875 23.492188 28.003906 23.519531 C 28.316406 23.546875 28.007812 22.679688 27.929688 22.113281 C 27.894531 21.867188 27.902344 21.285156 28.070312 21.445312 C 28.300781 21.667969 28.339844 21.613281 28.859375 20.902344 C 29.03125 20.671875 30.160156 20.261719 30.40625 20.449219 C 30.648438 20.636719 31.101562 21.183594 31.800781 21.121094 C 31.980469 21.105469 32.136719 21.011719 32.34375 20.9375 C 32.554688 20.863281 32.75 20.765625 32.878906 21.113281 C 33.011719 21.464844 33.535156 21.59375 33.707031 21.796875 C 33.882812 21.996094 33.960938 22.277344 34.632812 22.382812 C 35.304688 22.488281 35.75 22.636719 35.75 23.082031 C 35.75 23.527344 35.601562 24.0625 36.167969 24.183594 C 36.734375 24.304688 36.890625 24.324219 36.988281 24.585938 C 37.082031 24.847656 37.378906 24.8125 37.675781 24.839844 C 37.972656 24.867188 37.980469 24.953125 38.078125 25.085938 C 38.171875 25.214844 38.488281 25.199219 38.488281 25.511719 C 38.488281 25.828125 38.285156 26.546875 37.921875 27.015625 C 37.554688 27.488281 37.195312 28.085938 36.839844 28.6875 C 36.703125 28.917969 36.628906 29.160156 36.550781 29.375 C 36.320312 27.839844 35.820312 25.800781 34.945312 23.945312 C 34.164062 27.097656 33.503906 30.011719 32.445312 32.945312 C 32.425781 32.945312 32.40625 32.949219 32.382812 32.945312 C 32.078125 32.9375 31.949219 32.851562 31.921875 33.035156 C 31.894531 33.21875 31.929688 33.394531 31.476562 33.429688 C 31.023438 33.464844 30.527344 33.832031 30.25 34.058594 " fill-opacity="1" fill-rule="evenodd"/><path fill="#53a037" d="M 35.296875 24.746094 C 35.5 24.519531 35.699219 24.289062 35.886719 24.050781 C 35.953125 24.109375 36.042969 24.15625 36.167969 24.183594 C 36.734375 24.304688 36.890625 24.324219 36.988281 24.585938 C 37.082031 24.847656 37.378906 24.8125 37.675781 24.839844 C 37.972656 24.867188 37.980469 24.953125 38.078125 25.085938 C 38.171875 25.214844 38.488281 25.199219 38.488281 25.511719 C 38.488281 25.828125 38.285156 26.546875 37.921875 27.015625 C 37.554688 27.488281 37.195312 28.085938 36.839844 28.6875 C 36.703125 28.917969 36.628906 29.160156 36.550781 29.375 C 36.355469 28.058594 35.957031 26.371094 35.296875 24.746094 Z M 30.25 34.058594 C 30.25 34.058594 29.082031 34.199219 29.550781 33.449219 C 30.023438 32.699219 30.457031 32.664062 30.527344 31.8125 C 30.597656 30.957031 31.121094 30.714844 31.382812 30.3125 C 31.644531 29.910156 31.398438 29.476562 30.71875 29.164062 C 30.140625 28.894531 30.421875 28.589844 29.964844 28.472656 C 31.6875 27.777344 33.246094 26.761719 34.5625 25.5 C 33.933594 28.070312 33.328125 30.5 32.445312 32.945312 C 32.425781 32.945312 32.40625 32.949219 32.382812 32.945312 C 32.078125 32.9375 31.949219 32.851562 31.921875 33.035156 C 31.894531 33.21875 31.929688 33.394531 31.476562 33.429688 C 31.023438 33.464844 30.527344 33.832031 30.25 34.058594 " fill-opacity="1" fill-rule="evenodd"/><path fill="#ffffff" d="M 38.34375 15.738281 L 38.367188 15.78125 L 38.339844 15.742188 Z M 27.328125 9.390625 C 27.691406 9.390625 28.054688 9.40625 28.414062 9.4375 C 28.519531 9.707031 28.621094 9.980469 28.722656 10.265625 C 28.390625 10.238281 28.054688 10.226562 27.714844 10.226562 C 22.90625 10.226562 18.703125 12.84375 16.460938 16.730469 C 16.367188 16.472656 16.277344 16.214844 16.191406 15.949219 C 18.363281 12.039062 22.535156 9.390625 27.328125 9.390625 " fill-opacity="1" fill-rule="evenodd"/><path fill="#ffffff" d="M 32.074219 33.9375 C 30.605469 34.527344 29.003906 34.855469 27.328125 34.855469 C 22.519531 34.855469 18.335938 32.1875 16.171875 28.253906 C 18.40625 31.914062 22.4375 34.355469 27.039062 34.355469 C 28.9375 34.355469 30.738281 33.941406 32.355469 33.195312 C 32.265625 33.441406 32.171875 33.691406 32.074219 33.9375 Z M 38.34375 15.738281 C 39.433594 17.613281 40.058594 19.796875 40.058594 22.121094 C 40.058594 24.921875 39.15625 27.507812 37.625 29.605469 C 37.394531 29.621094 37.164062 29.632812 36.925781 29.640625 C 38.703125 27.453125 39.769531 24.664062 39.769531 21.625 C 39.769531 19.507812 39.25 17.511719 38.335938 15.753906 L 38.34375 15.738281 " fill-opacity="1" fill-rule="evenodd"/><path fill="#ffffff" d="M 34.945312 23.945312 C 33.796875 28.59375 32.90625 32.714844 30.617188 37.167969 C 34.40625 39.628906 37.589844 42.714844 40.757812 46.652344 C 40.625 44.644531 40.355469 43.5 39.59375 41.070312 C 41.605469 40.5625 44.882812 39.824219 46.996094 37.425781 C 46.894531 34.960938 46.632812 32.851562 50.636719 23.820312 C 49.359375 26.238281 46.414062 29.292969 36.589844 29.65625 C 36.382812 28.097656 35.875 25.914062 34.945312 23.945312 " fill-opacity="1" fill-rule="evenodd"/><path fill="#66c430" d="M 31.894531 36.988281 C 35.867188 39.660156 38.675781 42.742188 40.800781 46.648438 C 40.664062 44.640625 40.394531 43.496094 39.632812 41.066406 C 41.207031 40.671875 43.589844 40.109375 45.546875 38.75 C 45.898438 35.992188 45.117188 36.421875 45.523438 33.871094 C 45.996094 30.933594 46.871094 30.898438 47.503906 28.273438 C 45.164062 29.507812 41.785156 30.519531 35.992188 30.816406 C 35.847656 29.722656 35.667969 28.023438 35.179688 26.601562 C 34.4375 30.441406 32.773438 35.28125 31.894531 36.988281 " fill-opacity="1" fill-rule="evenodd"/><path fill="#ffffff" d="M 24.320312 15.378906 C 29.105469 15.285156 33.316406 15.082031 38.210938 16.136719 C 39.605469 11.839844 41.761719 7.96875 44.746094 3.886719 C 42.839844 4.535156 41.804688 5.089844 39.65625 6.457031 C 38.644531 4.644531 37.085938 1.671875 34.21875 0.25 C 31.867188 0.984375 29.894531 1.785156 20.136719 0.25 C 22.804688 0.863281 26.515625 2.917969 29.410156 12.3125 C 27.957031 12.917969 25.980469 13.972656 24.320312 15.378906 " fill-opacity="1" fill-rule="evenodd"/><path fill="#ffffff" d="M 22.394531 28.097656 C 19.921875 24 17.636719 20.453125 16.105469 15.691406 C 11.6875 16.628906 7.253906 16.695312 2.230469 16.15625 C 3.746094 17.480469 4.742188 18.097656 7 19.277344 C 5.933594 21.058594 4.140625 23.894531 4.34375 27.089844 C 6.15625 28.761719 7.835938 30.066406 11.386719 39.285156 C 10.582031 36.667969 10.503906 32.425781 17.195312 25.226562 C 18.445312 26.179688 20.347656 27.363281 22.394531 28.097656 " fill-opacity="1" fill-rule="evenodd"/><path fill="#66c430" d="M 15.355469 16.699219 C 10.660156 17.621094 6.496094 17.429688 2.230469 16.167969 C 3.746094 17.492188 4.742188 18.113281 7 19.289062 C 6.167969 20.683594 4.878906 22.765625 4.457031 25.113281 C 6.160156 27.308594 6.40625 26.453125 7.921875 28.546875 C 9.664062 30.957031 9.070312 31.597656 10.476562 33.902344 C 11.261719 31.375 12.933594 28.269531 16.820312 23.964844 C 17.699219 24.636719 19.027344 25.707031 20.375 26.371094 C 18.1875 23.128906 15.941406 18.53125 15.355469 16.699219 " fill-opacity="1" fill-rule="evenodd"/><path fill="#66c430" d="M 37.722656 14.988281 C 39.269531 10.460938 41.519531 6.949219 44.746094 3.886719 C 42.839844 4.535156 41.804688 5.089844 39.65625 6.457031 C 38.867188 5.039062 37.707031 2.882812 35.886719 1.34375 C 33.132812 1.71875 33.75 2.363281 31.179688 2.628906 C 28.222656 2.933594 27.960938 2.097656 25.261719 2.164062 C 27.058594 4.105469 28.914062 7.105469 30.699219 12.625 C 29.675781 13.050781 28.082031 13.664062 26.835938 14.5 C 30.738281 14.226562 35.839844 14.582031 37.722656 14.988281 " fill-opacity="1" fill-rule="evenodd"/><path fill="#0d0d0d" d="M 31.953125 34.246094 C 30.496094 34.808594 28.921875 35.117188 27.273438 35.117188 C 21.941406 35.117188 17.382812 31.882812 15.40625 27.273438 C 15.507812 27.148438 15.609375 27.027344 15.710938 26.902344 C 17.605469 31.429688 22.09375 34.644531 27.273438 34.644531 C 29.015625 34.644531 30.679688 34.28125 32.195312 33.625 C 32.117188 33.832031 32.035156 34.039062 31.953125 34.246094 Z M 38.433594 15.472656 C 39.617188 17.40625 40.300781 19.679688 40.300781 22.125 C 40.300781 24.898438 39.421875 27.476562 37.925781 29.589844 C 37.710938 29.601562 37.492188 29.613281 37.269531 29.625 C 38.855469 27.527344 39.796875 24.925781 39.796875 22.125 C 39.796875 19.941406 39.226562 17.882812 38.226562 16.085938 C 38.292969 15.878906 38.363281 15.675781 38.433594 15.472656 Z M 27.273438 9.269531 C 27.640625 9.269531 28.007812 9.285156 28.363281 9.316406 C 28.410156 9.429688 28.453125 9.542969 28.5 9.660156 C 28.097656 9.621094 27.6875 9.601562 27.273438 9.601562 C 22.550781 9.601562 18.398438 12.277344 16.269531 16.183594 C 16.214844 16.019531 16.160156 15.855469 16.105469 15.691406 L 16.058594 15.699219 C 18.28125 11.839844 22.460938 9.269531 27.273438 9.269531 " fill-opacity="1" fill-rule="nonzero"/><path fill="#0d0d0d" d="M 27.867188 21.617188 C 28.179688 21.988281 28.121094 22.824219 28.203125 23.375 C 28.269531 23.792969 28.042969 23.773438 27.824219 23.644531 C 27.617188 23.527344 27.488281 23.816406 27.394531 23.945312 C 26.273438 25.472656 27.40625 24.894531 27.316406 25.304688 C 27.269531 25.527344 26.441406 25.554688 26.738281 25.894531 L 26.703125 25.867188 C 28.582031 27.359375 26.640625 27.691406 29.210938 29.222656 C 30.597656 30.050781 29.964844 31.164062 29.230469 32.34375 C 29.132812 32.683594 29.15625 33.046875 29.03125 33.285156 C 28.886719 33.566406 28.664062 33.707031 28.476562 33.980469 C 28.34375 34.167969 28.1875 34.527344 28.027344 34.746094 C 28.003906 34.777344 27.664062 34.890625 27.640625 34.914062 C 27.730469 34.734375 28.210938 33.84375 28.25 33.796875 C 28.539062 33.460938 28.679688 33.488281 28.773438 33.320312 C 29.03125 32.859375 28.6875 32.640625 28.988281 32.105469 C 29.304688 31.546875 29.417969 31.332031 29.539062 30.976562 C 29.78125 30.253906 29.695312 29.863281 29.46875 29.65625 C 28.972656 29.207031 27.78125 29.304688 27.378906 27.355469 C 27.144531 26.199219 25.679688 25.839844 26.773438 25.292969 C 26.375 24.824219 26.941406 24.519531 27.160156 23.855469 C 27.464844 22.921875 28.027344 23.652344 27.992188 23.320312 C 27.921875 22.679688 27.894531 22.25 27.726562 21.902344 C 27.640625 21.71875 27.277344 21.421875 27.160156 21.757812 C 26.808594 22.769531 26.253906 21.445312 25.757812 21.328125 C 23.917969 20.882812 26.042969 19.945312 24.195312 19.90625 C 22.585938 19.875 23.296875 19.195312 22.707031 19.210938 C 21 19.253906 21.570312 18.761719 21.152344 18.671875 C 19.269531 18.265625 20.5625 17.9375 20.246094 17.113281 C 19.722656 15.769531 19.902344 14.828125 19.679688 14.746094 C 19.433594 15.050781 19.675781 16.183594 19.523438 16.796875 C 19.417969 17.226562 19.207031 16.867188 19.039062 16.710938 C 18.148438 15.890625 19.105469 14.695312 18.835938 14.382812 C 17.738281 13.113281 20.296875 12.507812 20.476562 11.40625 C 20.484375 11.351562 20.632812 11.222656 20.632812 11.167969 C 21.085938 12.320312 18.101562 13.144531 19.011719 14.238281 C 19.402344 14.707031 18.488281 15.472656 19.269531 16.539062 C 19.246094 15.65625 19.261719 13.75 19.964844 14.511719 C 20.386719 14.96875 19.933594 15.71875 20.59375 17.066406 C 21.152344 18.207031 19.453125 18.039062 21.234375 18.34375 C 21.839844 18.449219 21.136719 18.871094 22.730469 18.972656 C 23.636719 19.027344 22.792969 19.566406 24.355469 19.640625 C 26.367188 19.730469 24.335938 20.699219 25.851562 21.136719 C 26.765625 21.402344 26.589844 22.566406 27.132812 21.449219 C 27.222656 21.265625 27.742188 21.46875 27.867188 21.617188 " fill-opacity="1" fill-rule="evenodd"/><path fill="#0d0d0d" d="M 25.035156 15.367188 L 24.800781 15.371094 C 24.9375 15.40625 25.015625 15.429688 25.035156 15.367188 Z M 28.679688 10.144531 C 28.324219 9.992188 28.050781 9.65625 28.15625 10.480469 C 28.207031 10.894531 27.035156 11.542969 26.929688 10.367188 C 26.914062 10.292969 26.195312 10.332031 25.777344 10.257812 C 25.519531 10.207031 25.40625 10.101562 25.425781 10.011719 C 25.492188 9.699219 26.296875 9.476562 26.886719 9.546875 C 26.1875 9.710938 26 9.800781 25.800781 9.894531 C 25.601562 9.988281 25.453125 10.050781 25.808594 10.136719 C 26.257812 10.253906 27.128906 10.074219 27.164062 10.277344 C 27.316406 11.128906 27.902344 10.707031 27.933594 10.457031 C 27.976562 10.125 27.746094 9.628906 28.421875 9.828125 C 28.480469 9.847656 28.53125 9.867188 28.585938 9.886719 C 28.617188 9.972656 28.648438 10.058594 28.679688 10.144531 Z M 27.953125 12.992188 C 27.953125 12.644531 28.359375 12.65625 28.789062 12.585938 C 28.519531 12.707031 28.242188 12.84375 27.953125 12.992188 Z M 26.660156 15.332031 L 26.375 15.335938 C 26.488281 16.636719 27.671875 17.121094 27.179688 15.320312 L 26.984375 15.324219 C 27.082031 15.601562 27.15625 15.914062 27.046875 16.25 C 26.683594 16.042969 26.671875 15.796875 26.664062 15.390625 C 26.664062 15.367188 26.660156 15.347656 26.660156 15.332031 Z M 24.789062 14.996094 C 24.925781 14.890625 25.066406 14.785156 25.207031 14.683594 C 25.035156 14.652344 24.882812 14.695312 24.820312 14.851562 C 24.796875 14.902344 24.792969 14.953125 24.789062 14.996094 Z M 32.390625 33.105469 C 32.265625 33.074219 32.148438 33.011719 32.042969 33.023438 C 32.011719 33.808594 31.515625 33.171875 30.425781 34.136719 C 30.15625 34.375 28.707031 34.777344 28.519531 34.859375 C 28.824219 34.671875 29.269531 34.378906 29.570312 34.207031 C 29.671875 34.054688 30.050781 34.089844 30.3125 33.835938 C 31.03125 33.160156 31.796875 33.347656 31.789062 33.082031 C 31.65625 32.640625 32.148438 32.808594 32.378906 32.832031 C 32.40625 32.835938 32.449219 32.820312 32.5 32.796875 C 32.464844 32.898438 32.425781 33 32.390625 33.105469 Z M 27.691406 21.011719 C 28.082031 21.195312 28.105469 21.792969 28.570312 21.183594 C 28.644531 21.085938 28.703125 20.929688 28.84375 20.773438 C 29.046875 20.554688 30.246094 20.199219 30.375 20.269531 C 30.539062 20.355469 30.539062 20.371094 30.804688 20.648438 C 32.210938 21.648438 32.441406 20.007812 32.984375 21.054688 C 33.207031 21.480469 33.050781 21.289062 33.46875 21.488281 C 34.0625 21.769531 33.445312 22.050781 35.085938 22.320312 C 36.636719 22.574219 35.1875 23.894531 36.445312 24.105469 C 36.75 24.15625 36.949219 24.269531 36.992188 24.351562 C 37.203125 24.757812 37.257812 24.582031 37.75 24.679688 C 37.839844 24.699219 37.925781 24.722656 38.007812 24.753906 C 38.15625 24.8125 38.058594 24.945312 38.164062 25.050781 C 38.273438 25.160156 38.578125 25.105469 38.617188 25.269531 C 38.644531 25.378906 38.675781 25.558594 38.640625 25.777344 C 38.386719 27.367188 37.328125 27.503906 36.808594 29.15625 C 36.742188 29.359375 36.683594 29.523438 36.625 29.65625 L 36.589844 29.65625 C 36.566406 29.480469 36.539062 29.292969 36.507812 29.101562 L 36.519531 29.074219 C 37.113281 27.757812 38.472656 26.472656 38.277344 25.367188 C 38.050781 25.324219 37.972656 25.257812 37.882812 25.066406 C 37.621094 24.988281 37.578125 24.972656 37.4375 24.957031 C 36.539062 24.867188 37.179688 24.460938 36.546875 24.433594 C 34.613281 24.347656 36.414062 22.859375 35.113281 22.625 C 33.183594 22.28125 34.378906 22.167969 33.269531 21.699219 C 32.789062 21.496094 32.761719 21.320312 32.730469 21.199219 C 32.632812 20.78125 32.460938 21.046875 32.355469 21.105469 C 31.207031 21.726562 30.636719 20.597656 30.292969 20.523438 C 30.058594 20.472656 29.125 20.828125 29.011719 20.945312 C 28.726562 21.242188 28.511719 21.671875 28.414062 21.773438 C 28.269531 21.925781 28.152344 21.621094 27.816406 21.375 C 27.378906 21.046875 27.257812 21.253906 26.765625 21.277344 C 26.285156 21.300781 25.875 21.097656 26.179688 19.828125 C 26.640625 17.890625 23.570312 20.265625 24.5 18.601562 C 24.582031 18.453125 24.890625 18.023438 25.019531 17.644531 C 25.113281 17.378906 25.171875 17.253906 24.824219 17.289062 C 24.484375 17.324219 24.289062 17.609375 24.210938 17.953125 C 24.164062 18.164062 23.886719 18.292969 23.605469 18.328125 C 23.144531 18.378906 23.101562 18.648438 22.808594 18.429688 C 22.292969 18.03125 22.234375 17.769531 22.128906 17.425781 C 21.808594 16.398438 22.472656 16.5625 22.632812 15.640625 C 22.746094 14.984375 23.683594 14.816406 24.378906 15.074219 C 24.476562 15.109375 24.546875 15.132812 24.605469 15.144531 C 24.546875 15.191406 24.484375 15.242188 24.425781 15.289062 C 23.851562 15.214844 23.035156 15.195312 22.941406 15.695312 C 22.761719 16.671875 21.699219 17.015625 22.667969 17.902344 C 23.183594 18.371094 23.085938 18.230469 23.453125 18.097656 C 24.71875 17.628906 23.609375 17.621094 24.371094 17.269531 C 26.125 16.464844 25.242188 17.761719 24.679688 18.625 C 24.449219 18.976562 24.53125 19.054688 24.917969 18.96875 C 25.835938 18.761719 26.726562 18.476562 26.449219 19.734375 C 26.304688 20.375 26.171875 20.839844 26.316406 21.003906 C 26.632812 21.359375 27.25 20.796875 27.691406 21.011719 " fill-opacity="1" fill-rule="evenodd"/><path fill="#0d0d0d" d="M 26.300781 17.328125 C 26.617188 17.324219 27.171875 16.914062 27.664062 17.613281 C 27.847656 17.875 27.792969 17.957031 28.167969 17.980469 C 28.390625 17.996094 29.289062 18.171875 28.980469 17.828125 C 28.65625 17.464844 27.003906 16.660156 26.253906 17.09375 C 26.136719 17.164062 26.035156 17.332031 26.300781 17.328125 Z M 26.121094 17.007812 C 26.722656 16.28125 28.496094 17.121094 29.117188 17.75 C 29.546875 18.179688 29.351562 18.429688 27.800781 18.097656 C 27.253906 17.984375 28.050781 17.289062 26.1875 17.480469 C 26.078125 17.492188 25.972656 17.453125 25.960938 17.375 C 25.941406 17.265625 26.050781 17.09375 26.121094 17.007812 " fill-opacity="1" fill-rule="evenodd"/><path fill="#0d0d0d" d="M 30.113281 18.703125 C 30.367188 18.453125 30.707031 18.613281 30.898438 18.6875 C 31.039062 18.738281 31.105469 18.71875 30.984375 18.5625 C 30.359375 17.738281 29.960938 18.140625 29.613281 18.457031 C 29.425781 18.625 29.503906 18.652344 29.609375 18.683594 C 29.8125 18.746094 30.019531 18.796875 30.113281 18.703125 Z M 30.125 18.890625 C 29.949219 19.003906 29.597656 18.894531 29.460938 18.800781 C 29.226562 18.636719 29.417969 18.417969 29.75 18.085938 C 30.675781 17.160156 31.886719 19.417969 30.6875 18.871094 C 30.386719 18.730469 30.363281 18.742188 30.125 18.890625 " fill-opacity="1" fill-rule="evenodd"/><path fill="#0d0d0d" d="M 27.820312 18.429688 C 27.820312 18.429688 28.308594 18.359375 28.5625 18.582031 C 28.820312 18.804688 28.234375 18.785156 28.089844 18.710938 C 27.949219 18.636719 27.59375 18.453125 27.820312 18.429688 " fill-opacity="1" fill-rule="evenodd"/><path fill="#0d0d0d" d="M 31.722656 18.503906 C 31.722656 18.503906 31.335938 18.34375 31.335938 18.519531 C 31.335938 18.695312 31.546875 18.734375 31.753906 18.6875 C 31.964844 18.640625 31.875 18.554688 31.722656 18.503906 " fill-opacity="1" fill-rule="evenodd"/><path fill="#0d0d0d" d="M 32.808594 19.140625 C 32.808594 19.140625 32.71875 19.261719 32.839844 19.273438 C 32.960938 19.289062 32.914062 18.9375 32.808594 19.140625 " fill-opacity="1" fill-rule="evenodd"/><path fill="#0d0d0d" d="M 32.90625 19.402344 C 32.90625 19.402344 32.882812 19.5625 32.996094 19.558594 C 33.109375 19.550781 32.90625 19.199219 32.90625 19.402344 " fill-opacity="1" fill-rule="evenodd"/><path fill="#0d0d0d" d="M 33.023438 19.753906 C 33.023438 19.753906 33.078125 19.875 33.125 19.808594 C 33.171875 19.738281 33.015625 19.503906 33.023438 19.753906 " fill-opacity="1" fill-rule="evenodd"/><path fill="#0d0d0d" d="M 33.070312 20.007812 C 33.070312 20.007812 33.15625 20.007812 33.15625 19.933594 C 33.15625 19.859375 33.089844 19.886719 33.066406 19.941406 C 33.046875 19.992188 33.035156 20.019531 33.070312 20.007812 " fill-opacity="1" fill-rule="evenodd"/><path fill="#0d0d0d" d="M 33.21875 20.898438 C 33.21875 20.898438 33.070312 20.902344 33.097656 21.039062 C 33.125 21.171875 33.140625 21.261719 33.292969 21.1875 C 33.449219 21.113281 33.414062 20.835938 33.21875 20.898438 " fill-opacity="1" fill-rule="evenodd"/><path fill="#0d0d0d" d="M 23.503906 24.449219 C 23.503906 24.449219 23.640625 24.273438 23.574219 24.183594 C 23.507812 24.097656 23.4375 24.160156 23.417969 24.207031 C 23.398438 24.25 23.414062 24.589844 23.503906 24.449219 " fill-opacity="1" fill-rule="evenodd"/><path fill="#0d0d0d" d="M 13.9375 29.355469 C 14.953125 30.101562 16.308594 30.308594 17.570312 30.386719 C 17.664062 30.5 17.761719 30.613281 17.871094 30.730469 C 16.21875 30.621094 14.746094 30.339844 13.742188 29.726562 C 13.824219 29.53125 13.863281 29.46875 13.9375 29.355469 " fill-opacity="1" fill-rule="nonzero"/><path fill="#0d0d0d" d="M 11.585938 39.117188 C 11.769531 39.597656 13.636719 42.136719 24.957031 41.34375 C 23.445312 39.691406 21.910156 37.332031 21.300781 35.257812 C 21.511719 34.757812 21.777344 34.269531 22.078125 33.800781 C 22.203125 33.855469 22.324219 33.910156 22.453125 33.960938 C 22.203125 34.375 21.980469 34.8125 21.792969 35.277344 C 22.464844 37.796875 24.011719 39.710938 25.625 41.691406 C 24.449219 41.78125 13.445312 42.582031 11.371094 39.679688 C 11.300781 39.578125 11.226562 39.472656 11.175781 39.363281 C 11.15625 39.308594 11.136719 39.253906 11.117188 39.199219 C 11.132812 38.742188 11.183594 38.171875 11.226562 37.726562 C 11.316406 38.230469 11.4375 38.703125 11.585938 39.117188 " fill-opacity="1" fill-rule="nonzero"/><path fill="#0d0d0d" d="M 24.601562 9.710938 C 25.464844 8.484375 26.386719 7.5 27.347656 7.015625 C 27.453125 7.160156 27.464844 7.425781 27.449219 7.433594 C 26.460938 7.867188 25.691406 8.71875 25.054688 9.613281 C 24.910156 9.644531 24.757812 9.675781 24.601562 9.710938 " fill-opacity="1" fill-rule="nonzero"/><path fill="#0d0d0d" d="M 20.183594 0.511719 C 19.675781 0.429688 16.542969 0.777344 11.570312 10.976562 C 13.757812 10.496094 16.566406 10.34375 18.667969 10.851562 C 18.957031 11.230469 19.214844 11.644531 19.445312 12.074219 C 19.324219 12.164062 19.214844 12.25 19.117188 12.328125 C 18.90625 11.964844 18.671875 11.609375 18.40625 11.265625 C 15.886719 10.59375 13.453125 10.976562 10.933594 11.382812 C 11.441406 10.316406 16.253906 0.386719 19.804688 0.0429688 C 19.925781 0.03125 20.050781 0.0195312 20.175781 0.03125 C 20.464844 0.0820312 20.761719 0.148438 21.066406 0.234375 C 21.066406 0.496094 22.398438 1.128906 21.070312 0.726562 C 20.765625 0.632812 20.464844 0.558594 20.183594 0.511719 " fill-opacity="1" fill-rule="nonzero"/><path fill="#0d0d0d" d="M 39.765625 25.015625 C 40.972656 26.347656 41.914062 27.683594 42.210938 28.910156 L 41.808594 29.015625 C 41.601562 27.679688 40.671875 26.507812 39.777344 25.519531 C 39.738281 25.476562 39.761719 25.082031 39.765625 25.015625 " fill-opacity="1" fill-rule="nonzero"/><path fill="#0d0d0d" d="M 50.378906 23.796875 C 50.585938 23.332031 51.0625 20.210938 42.496094 12.769531 C 42.398438 15.007812 41.816406 17.761719 40.78125 19.65625 C 40.480469 19.78125 40.171875 19.886719 39.851562 19.976562 C 39.832031 19.820312 39.8125 19.675781 39.789062 19.546875 C 40.011719 19.472656 40.230469 19.390625 40.449219 19.296875 C 41.75 17.039062 42.011719 14.589844 42.269531 12.050781 C 43.167969 12.816406 51.511719 20.035156 50.925781 23.554688 C 50.90625 23.675781 50.882812 23.800781 50.84375 23.914062 C 50.828125 23.949219 50.8125 23.984375 50.796875 24.015625 L 50.144531 24.28125 C 50.230469 24.128906 50.308594 23.949219 50.378906 23.796875 " fill-opacity="1" fill-rule="nonzero"/><g clip-path="url(#7fcf8baf87)"><path fill="#0d0d0d" d="M 34.859375 23.511719 C 35.878906 25.273438 36.316406 27.238281 36.730469 29.425781 C 42.136719 29.035156 48.171875 28.390625 50.441406 23.71875 L 50.84375 23.914062 C 48.953125 27.902344 46.703125 33.550781 47.222656 37.507812 C 44.339844 40.015625 42.5625 40.710938 39.773438 41.195312 C 40.394531 42.847656 40.929688 44.890625 40.867188 47.03125 C 37.882812 43.324219 34.503906 39.921875 30.402344 37.210938 C 32.503906 33.078125 33.789062 28.304688 34.859375 23.511719 Z M 34.96875 24.222656 C 33.8125 30.148438 32.546875 34.09375 30.867188 37.140625 C 33.375 38.511719 37.046875 41.832031 40.585938 46.160156 C 40.484375 44.324219 39.882812 42.65625 39.253906 40.941406 C 42.105469 40.324219 45.066406 39.386719 46.914062 37.394531 C 46.628906 35.808594 46.371094 32.976562 49.964844 25.085938 C 47.433594 28.828125 40.886719 29.777344 36.394531 29.890625 C 36.15625 28.089844 35.675781 25.898438 34.96875 24.222656 " fill-opacity="1" fill-rule="nonzero"/></g><g clip-path="url(#5905930d1f)"><path fill="#0d0d0d" d="M 22.761719 28.34375 C 20.796875 27.820312 19.097656 26.738281 17.261719 25.488281 C 13.714844 29.585938 9.898438 34.308594 11.601562 39.21875 L 11.175781 39.367188 C 9.691406 35.207031 7.289062 29.625 4.121094 27.191406 C 4.390625 23.378906 5.15625 21.628906 6.785156 19.316406 C 5.179688 18.585938 3.355469 17.523438 1.886719 15.964844 C 6.617188 16.472656 11.414062 16.492188 16.226562 15.503906 C 17.664062 19.914062 20.132812 24.199219 22.761719 28.34375 Z M 22.183594 27.917969 C 18.808594 22.914062 16.917969 19.226562 15.949219 15.882812 C 13.207031 16.6875 8.261719 16.941406 2.703125 16.378906 C 4.070312 17.605469 5.675781 18.363281 7.332031 19.132812 C 5.753906 21.582031 4.320312 24.339844 4.425781 27.050781 C 5.746094 27.972656 7.929688 29.792969 10.96875 37.914062 C 10.113281 33.476562 14.070312 28.175781 17.164062 24.921875 C 18.609375 26.023438 20.496094 27.234375 22.183594 27.917969 " fill-opacity="1" fill-rule="nonzero"/></g><path fill="#0d0d0d" d="M 23.921875 15.574219 C 25.355469 14.136719 27.144531 13.203125 29.148438 12.238281 C 27.371094 7.117188 25.191406 1.453125 20.085938 0.46875 L 20.171875 0.03125 C 24.515625 0.824219 30.550781 1.535156 34.242188 0.0078125 C 37.40625 2.144531 38.539062 3.683594 39.730469 6.253906 C 41.164062 5.222656 42.996094 4.175781 45.082031 3.683594 C 42.277344 7.527344 39.859375 11.671875 38.308594 16.335938 C 33.773438 15.371094 28.828125 15.371094 23.921875 15.574219 Z M 24.582031 15.285156 C 30.601562 14.867188 34.742188 15.070312 38.117188 15.90625 C 38.792969 13.128906 41.046875 8.71875 44.3125 4.183594 C 42.566406 4.757812 41.109375 5.765625 39.617188 6.816406 C 38.28125 4.222656 36.613281 1.605469 34.210938 0.339844 C 32.753906 1.023438 30.082031 2.003906 21.535156 0.578125 C 25.804688 2.054688 28.414062 8.132812 29.6875 12.441406 C 28.007812 13.136719 26.015625 14.167969 24.582031 15.285156 " fill-opacity="1" fill-rule="nonzero"/><g fill="#004aad" fill-opacity="1"><g transform="translate(52.955185, 29.125858)"><g><path d="M 0.515625 0 L 0.515625 -0.625 C 0.867188 -0.632812 1.148438 -0.664062 1.359375 -0.71875 C 1.578125 -0.769531 1.742188 -0.859375 1.859375 -0.984375 C 1.984375 -1.109375 2.066406 -1.285156 2.109375 -1.515625 C 2.148438 -1.742188 2.171875 -2.039062 2.171875 -2.40625 L 2.171875 -9.609375 C 2.171875 -9.972656 2.15625 -10.265625 2.125 -10.484375 C 2.09375 -10.710938 2.023438 -10.890625 1.921875 -11.015625 C 1.828125 -11.148438 1.691406 -11.238281 1.515625 -11.28125 C 1.347656 -11.332031 1.125 -11.367188 0.84375 -11.390625 L 0.84375 -12.015625 L 5.859375 -12.015625 C 7.421875 -12.015625 8.625 -11.757812 9.46875 -11.25 C 10.320312 -10.75 10.75 -10.03125 10.75 -9.09375 C 10.75 -7.863281 9.859375 -6.992188 8.078125 -6.484375 L 8.078125 -6.421875 C 8.648438 -6.421875 9.164062 -6.335938 9.625 -6.171875 C 10.09375 -6.015625 10.488281 -5.789062 10.8125 -5.5 C 11.132812 -5.207031 11.382812 -4.863281 11.5625 -4.46875 C 11.738281 -4.070312 11.828125 -3.640625 11.828125 -3.171875 C 11.828125 -2.640625 11.695312 -2.175781 11.4375 -1.78125 C 11.1875 -1.382812 10.820312 -1.050781 10.34375 -0.78125 C 9.414062 -0.257812 8.144531 0 6.53125 0 Z M 6.640625 -0.953125 C 8.304688 -0.953125 9.140625 -1.707031 9.140625 -3.21875 C 9.140625 -4.144531 8.835938 -4.820312 8.234375 -5.25 C 7.921875 -5.46875 7.519531 -5.625 7.03125 -5.71875 C 6.539062 -5.8125 5.9375 -5.859375 5.21875 -5.859375 L 4.46875 -5.859375 L 4.46875 -2.734375 C 4.46875 -2.085938 4.632812 -1.628906 4.96875 -1.359375 C 5.300781 -1.085938 5.859375 -0.953125 6.640625 -0.953125 Z M 5.390625 -6.796875 C 5.859375 -6.796875 6.265625 -6.835938 6.609375 -6.921875 C 6.953125 -7.015625 7.242188 -7.144531 7.484375 -7.3125 C 7.972656 -7.644531 8.21875 -8.175781 8.21875 -8.90625 C 8.21875 -9.664062 8.03125 -10.210938 7.65625 -10.546875 C 7.289062 -10.890625 6.691406 -11.0625 5.859375 -11.0625 L 4.75 -11.0625 C 4.5625 -11.0625 4.46875 -10.972656 4.46875 -10.796875 L 4.46875 -6.796875 Z M 5.390625 -6.796875 "/></g></g></g><g fill="#004aad" fill-opacity="1"><g transform="translate(65.391157, 29.125858)"><g><path d="M 7.375 -12.171875 C 8.300781 -12.171875 9.171875 -12.007812 9.984375 -11.6875 C 10.796875 -11.363281 11.5 -10.921875 12.09375 -10.359375 C 12.695312 -9.796875 13.171875 -9.132812 13.515625 -8.375 C 13.859375 -7.625 14.03125 -6.804688 14.03125 -5.921875 C 14.03125 -5.078125 13.851562 -4.285156 13.5 -3.546875 C 13.15625 -2.804688 12.679688 -2.160156 12.078125 -1.609375 C 11.484375 -1.066406 10.78125 -0.632812 9.96875 -0.3125 C 9.15625 0 8.289062 0.15625 7.375 0.15625 C 6.445312 0.15625 5.578125 0 4.765625 -0.3125 C 3.953125 -0.632812 3.242188 -1.066406 2.640625 -1.609375 C 2.035156 -2.160156 1.5625 -2.804688 1.21875 -3.546875 C 0.875 -4.285156 0.703125 -5.078125 0.703125 -5.921875 C 0.703125 -6.804688 0.875 -7.625 1.21875 -8.375 C 1.5625 -9.132812 2.03125 -9.796875 2.625 -10.359375 C 3.226562 -10.921875 3.9375 -11.363281 4.75 -11.6875 C 5.5625 -12.007812 6.4375 -12.171875 7.375 -12.171875 Z M 7.375 -0.859375 C 7.96875 -0.859375 8.507812 -0.972656 9 -1.203125 C 9.488281 -1.441406 9.90625 -1.773438 10.25 -2.203125 C 10.59375 -2.640625 10.851562 -3.164062 11.03125 -3.78125 C 11.21875 -4.40625 11.3125 -5.101562 11.3125 -5.875 C 11.3125 -6.6875 11.21875 -7.414062 11.03125 -8.0625 C 10.851562 -8.707031 10.59375 -9.257812 10.25 -9.71875 C 9.90625 -10.1875 9.488281 -10.539062 9 -10.78125 C 8.507812 -11.03125 7.96875 -11.15625 7.375 -11.15625 C 6.757812 -11.15625 6.207031 -11.03125 5.71875 -10.78125 C 5.238281 -10.539062 4.828125 -10.1875 4.484375 -9.71875 C 4.140625 -9.257812 3.875 -8.707031 3.6875 -8.0625 C 3.507812 -7.414062 3.421875 -6.6875 3.421875 -5.875 C 3.421875 -5.101562 3.507812 -4.40625 3.6875 -3.78125 C 3.875 -3.164062 4.140625 -2.640625 4.484375 -2.203125 C 4.828125 -1.773438 5.238281 -1.441406 5.71875 -1.203125 C 6.207031 -0.972656 6.757812 -0.859375 7.375 -0.859375 Z M 7.375 -0.859375 "/></g></g></g><g fill="#004aad" fill-opacity="1"><g transform="translate(80.105236, 29.125858)"><g><path d="M 10.84375 -9 C 10.84375 -8.144531 10.59375 -7.425781 10.09375 -6.84375 C 9.59375 -6.257812 8.800781 -5.867188 7.71875 -5.671875 L 11.328125 -1.515625 C 11.578125 -1.222656 11.875 -1 12.21875 -0.84375 C 12.5625 -0.695312 12.910156 -0.625 13.265625 -0.625 L 13.265625 0 L 9.5625 0 L 5.703125 -4.75 C 5.441406 -5.0625 5.210938 -5.269531 5.015625 -5.375 C 4.828125 -5.488281 4.648438 -5.546875 4.484375 -5.546875 L 4.484375 -2.484375 C 4.484375 -2.097656 4.507812 -1.78125 4.5625 -1.53125 C 4.613281 -1.289062 4.71875 -1.101562 4.875 -0.96875 C 5.03125 -0.832031 5.253906 -0.738281 5.546875 -0.6875 C 5.847656 -0.644531 6.25 -0.625 6.75 -0.625 L 6.75 0 L 0.546875 0 L 0.546875 -0.625 C 0.890625 -0.625 1.164062 -0.644531 1.375 -0.6875 C 1.59375 -0.738281 1.757812 -0.828125 1.875 -0.953125 C 2 -1.085938 2.082031 -1.269531 2.125 -1.5 C 2.164062 -1.738281 2.1875 -2.039062 2.1875 -2.40625 L 2.1875 -9.609375 C 2.1875 -9.972656 2.171875 -10.265625 2.140625 -10.484375 C 2.109375 -10.710938 2.039062 -10.890625 1.9375 -11.015625 C 1.832031 -11.148438 1.679688 -11.238281 1.484375 -11.28125 C 1.296875 -11.332031 1.039062 -11.367188 0.71875 -11.390625 L 0.71875 -12.015625 L 6.125 -12.015625 C 7.625 -12.015625 8.785156 -11.75 9.609375 -11.21875 C 10.429688 -10.6875 10.84375 -9.945312 10.84375 -9 Z M 4.484375 -6.484375 L 5.5 -6.484375 C 6.476562 -6.484375 7.207031 -6.671875 7.6875 -7.046875 C 8.164062 -7.429688 8.40625 -8.054688 8.40625 -8.921875 C 8.40625 -9.585938 8.203125 -10.125 7.796875 -10.53125 C 7.398438 -10.9375 6.84375 -11.140625 6.125 -11.140625 L 4.765625 -11.140625 C 4.578125 -11.140625 4.484375 -11.050781 4.484375 -10.875 Z M 4.484375 -6.484375 "/></g></g></g><g fill="#004aad" fill-opacity="1"><g transform="translate(92.822071, 29.125858)"><g><path d="M 7.8125 -3.640625 L 3.40625 -3.640625 C 2.914062 -2.535156 2.671875 -1.769531 2.671875 -1.34375 C 2.671875 -1.03125 2.785156 -0.832031 3.015625 -0.75 C 3.253906 -0.664062 3.609375 -0.625 4.078125 -0.625 L 4.078125 0 L -0.203125 0 L -0.203125 -0.625 C 0.046875 -0.65625 0.257812 -0.695312 0.4375 -0.75 C 0.625 -0.800781 0.785156 -0.875 0.921875 -0.96875 C 1.066406 -1.0625 1.191406 -1.179688 1.296875 -1.328125 C 1.398438 -1.484375 1.5 -1.671875 1.59375 -1.890625 L 5.703125 -12.171875 L 6.859375 -12.171875 L 10.578125 -3.0625 C 10.796875 -2.53125 10.976562 -2.113281 11.125 -1.8125 C 11.28125 -1.507812 11.441406 -1.273438 11.609375 -1.109375 C 11.785156 -0.953125 11.984375 -0.84375 12.203125 -0.78125 C 12.429688 -0.71875 12.722656 -0.671875 13.078125 -0.640625 L 13.078125 0 L 7.1875 0 L 7.1875 -0.640625 C 7.675781 -0.660156 8.03125 -0.710938 8.25 -0.796875 C 8.46875 -0.878906 8.578125 -1.046875 8.578125 -1.296875 C 8.578125 -1.441406 8.539062 -1.628906 8.46875 -1.859375 C 8.394531 -2.085938 8.296875 -2.367188 8.171875 -2.703125 Z M 3.765625 -4.578125 L 7.484375 -4.578125 L 5.6875 -9.296875 L 5.625 -9.296875 Z M 3.765625 -4.578125 "/></g></g></g><g fill="#004aad" fill-opacity="1"><g transform="translate(105.445283, 29.125858)"><g/></g></g><g fill="#004aad" fill-opacity="1"><g transform="translate(109.595805, 29.125858)"><g><path d="M 9.0625 -2.921875 L 12.671875 -12.015625 L 17.234375 -12.015625 L 17.234375 -11.390625 C 16.890625 -11.390625 16.609375 -11.351562 16.390625 -11.28125 C 16.179688 -11.21875 16.019531 -11.097656 15.90625 -10.921875 C 15.789062 -10.742188 15.710938 -10.5 15.671875 -10.1875 C 15.640625 -9.882812 15.625 -9.5 15.625 -9.03125 L 15.625 -2.984375 C 15.625 -2.460938 15.644531 -2.050781 15.6875 -1.75 C 15.726562 -1.445312 15.8125 -1.210938 15.9375 -1.046875 C 16.0625 -0.878906 16.238281 -0.769531 16.46875 -0.71875 C 16.707031 -0.664062 17.019531 -0.632812 17.40625 -0.625 L 17.40625 0 L 11.53125 0 L 11.53125 -0.625 C 11.914062 -0.632812 12.222656 -0.664062 12.453125 -0.71875 C 12.691406 -0.78125 12.875 -0.890625 13 -1.046875 C 13.132812 -1.203125 13.222656 -1.421875 13.265625 -1.703125 C 13.304688 -1.992188 13.328125 -2.382812 13.328125 -2.875 L 13.328125 -10.171875 L 13.25 -10.171875 L 9.046875 0.15625 L 7.890625 0.15625 L 3.5625 -10.171875 L 3.5 -10.171875 L 3.5 -2.984375 C 3.5 -2.460938 3.519531 -2.050781 3.5625 -1.75 C 3.601562 -1.445312 3.6875 -1.210938 3.8125 -1.046875 C 3.9375 -0.878906 4.113281 -0.769531 4.34375 -0.71875 C 4.582031 -0.664062 4.894531 -0.632812 5.28125 -0.625 L 5.28125 0 L 0.46875 0 L 0.46875 -0.625 C 0.851562 -0.632812 1.164062 -0.664062 1.40625 -0.71875 C 1.644531 -0.78125 1.828125 -0.890625 1.953125 -1.046875 C 2.085938 -1.203125 2.175781 -1.421875 2.21875 -1.703125 C 2.257812 -1.992188 2.28125 -2.382812 2.28125 -2.875 L 2.28125 -9.140625 C 2.28125 -9.578125 2.257812 -9.941406 2.21875 -10.234375 C 2.175781 -10.523438 2.097656 -10.753906 1.984375 -10.921875 C 1.867188 -11.097656 1.703125 -11.21875 1.484375 -11.28125 C 1.273438 -11.351562 0.992188 -11.390625 0.640625 -11.390625 L 0.640625 -12.015625 L 5.375 -12.015625 L 9 -2.921875 Z M 9.0625 -2.921875 "/></g></g></g><g fill="#004aad" fill-opacity="1"><g transform="translate(127.461784, 29.125858)"><g><path d="M 4.484375 -6.65625 C 5.148438 -6.65625 5.6875 -6.675781 6.09375 -6.71875 C 6.5 -6.757812 6.8125 -6.84375 7.03125 -6.96875 C 7.257812 -7.101562 7.421875 -7.289062 7.515625 -7.53125 C 7.609375 -7.78125 7.679688 -8.117188 7.734375 -8.546875 L 8.296875 -8.546875 L 8.296875 -3.984375 L 7.734375 -3.984375 C 7.671875 -4.398438 7.585938 -4.734375 7.484375 -4.984375 C 7.378906 -5.234375 7.210938 -5.421875 6.984375 -5.546875 C 6.753906 -5.679688 6.441406 -5.765625 6.046875 -5.796875 C 5.660156 -5.835938 5.140625 -5.859375 4.484375 -5.859375 L 4.484375 -2.640625 C 4.484375 -2.304688 4.523438 -2.023438 4.609375 -1.796875 C 4.703125 -1.566406 4.851562 -1.378906 5.0625 -1.234375 C 5.269531 -1.097656 5.546875 -1 5.890625 -0.9375 C 6.234375 -0.882812 6.65625 -0.859375 7.15625 -0.859375 C 7.738281 -0.859375 8.234375 -0.898438 8.640625 -0.984375 C 9.054688 -1.066406 9.398438 -1.210938 9.671875 -1.421875 C 9.941406 -1.628906 10.160156 -1.90625 10.328125 -2.25 C 10.492188 -2.601562 10.632812 -3.046875 10.75 -3.578125 L 11.375 -3.578125 L 11.125 0 L 0.546875 0 L 0.546875 -0.625 C 0.890625 -0.632812 1.171875 -0.664062 1.390625 -0.71875 C 1.609375 -0.769531 1.773438 -0.859375 1.890625 -0.984375 C 2.003906 -1.109375 2.082031 -1.285156 2.125 -1.515625 C 2.164062 -1.742188 2.1875 -2.039062 2.1875 -2.40625 L 2.1875 -9.609375 C 2.1875 -9.972656 2.164062 -10.265625 2.125 -10.484375 C 2.09375 -10.710938 2.023438 -10.890625 1.921875 -11.015625 C 1.816406 -11.148438 1.664062 -11.238281 1.46875 -11.28125 C 1.28125 -11.332031 1.03125 -11.367188 0.71875 -11.390625 L 0.71875 -12.015625 L 10.578125 -12.015625 L 10.6875 -8.953125 L 10.015625 -8.953125 C 9.953125 -9.390625 9.851562 -9.75 9.71875 -10.03125 C 9.582031 -10.320312 9.394531 -10.550781 9.15625 -10.71875 C 8.914062 -10.894531 8.609375 -11.015625 8.234375 -11.078125 C 7.859375 -11.148438 7.394531 -11.1875 6.84375 -11.1875 L 5.078125 -11.1875 C 4.804688 -11.1875 4.640625 -11.148438 4.578125 -11.078125 C 4.515625 -11.015625 4.484375 -10.859375 4.484375 -10.609375 Z M 4.484375 -6.65625 "/></g></g></g><g fill="#004aad" fill-opacity="1"><g transform="translate(139.382838, 29.125858)"><g><path d="M 12.71875 -8.578125 L 12.046875 -8.578125 C 12.015625 -9.085938 11.9375 -9.507812 11.8125 -9.84375 C 11.695312 -10.1875 11.53125 -10.457031 11.3125 -10.65625 C 11.09375 -10.863281 10.828125 -11.003906 10.515625 -11.078125 C 10.203125 -11.160156 9.835938 -11.203125 9.421875 -11.203125 C 9.015625 -11.203125 8.6875 -11.191406 8.4375 -11.171875 C 8.195312 -11.160156 8.015625 -11.132812 7.890625 -11.09375 C 7.765625 -11.0625 7.679688 -11.015625 7.640625 -10.953125 C 7.597656 -10.890625 7.578125 -10.8125 7.578125 -10.71875 L 7.578125 -2.546875 C 7.578125 -2.210938 7.597656 -1.925781 7.640625 -1.6875 C 7.691406 -1.445312 7.785156 -1.25 7.921875 -1.09375 C 8.066406 -0.945312 8.28125 -0.832031 8.5625 -0.75 C 8.84375 -0.675781 9.210938 -0.632812 9.671875 -0.625 L 9.671875 0 L 3.140625 0 L 3.140625 -0.625 C 3.609375 -0.632812 3.984375 -0.675781 4.265625 -0.75 C 4.546875 -0.832031 4.757812 -0.945312 4.90625 -1.09375 C 5.0625 -1.25 5.160156 -1.445312 5.203125 -1.6875 C 5.253906 -1.925781 5.28125 -2.210938 5.28125 -2.546875 L 5.28125 -10.71875 C 5.28125 -10.8125 5.257812 -10.890625 5.21875 -10.953125 C 5.1875 -11.015625 5.113281 -11.0625 5 -11.09375 C 4.882812 -11.132812 4.71875 -11.160156 4.5 -11.171875 C 4.289062 -11.191406 4.015625 -11.203125 3.671875 -11.203125 C 3.296875 -11.203125 2.9375 -11.179688 2.59375 -11.140625 C 2.25 -11.109375 1.945312 -11.003906 1.6875 -10.828125 C 1.425781 -10.660156 1.210938 -10.398438 1.046875 -10.046875 C 0.890625 -9.703125 0.804688 -9.210938 0.796875 -8.578125 L 0.1875 -8.578125 L 0.34375 -12.015625 L 12.5625 -12.015625 Z M 12.71875 -8.578125 "/></g></g></g><g fill="#004aad" fill-opacity="1"><g transform="translate(152.286913, 29.125858)"><g><path d="M 7.8125 -3.640625 L 3.40625 -3.640625 C 2.914062 -2.535156 2.671875 -1.769531 2.671875 -1.34375 C 2.671875 -1.03125 2.785156 -0.832031 3.015625 -0.75 C 3.253906 -0.664062 3.609375 -0.625 4.078125 -0.625 L 4.078125 0 L -0.203125 0 L -0.203125 -0.625 C 0.046875 -0.65625 0.257812 -0.695312 0.4375 -0.75 C 0.625 -0.800781 0.785156 -0.875 0.921875 -0.96875 C 1.066406 -1.0625 1.191406 -1.179688 1.296875 -1.328125 C 1.398438 -1.484375 1.5 -1.671875 1.59375 -1.890625 L 5.703125 -12.171875 L 6.859375 -12.171875 L 10.578125 -3.0625 C 10.796875 -2.53125 10.976562 -2.113281 11.125 -1.8125 C 11.28125 -1.507812 11.441406 -1.273438 11.609375 -1.109375 C 11.785156 -0.953125 11.984375 -0.84375 12.203125 -0.78125 C 12.429688 -0.71875 12.722656 -0.671875 13.078125 -0.640625 L 13.078125 0 L 7.1875 0 L 7.1875 -0.640625 C 7.675781 -0.660156 8.03125 -0.710938 8.25 -0.796875 C 8.46875 -0.878906 8.578125 -1.046875 8.578125 -1.296875 C 8.578125 -1.441406 8.539062 -1.628906 8.46875 -1.859375 C 8.394531 -2.085938 8.296875 -2.367188 8.171875 -2.703125 Z M 3.765625 -4.578125 L 7.484375 -4.578125 L 5.6875 -9.296875 L 5.625 -9.296875 Z M 3.765625 -4.578125 "/></g></g></g><g fill="#004aad" fill-opacity="1"><g transform="translate(164.91013, 29.125858)"><g><path d="M 11.296875 0 L 0.546875 0 L 0.546875 -0.625 C 0.890625 -0.632812 1.171875 -0.664062 1.390625 -0.71875 C 1.609375 -0.769531 1.773438 -0.859375 1.890625 -0.984375 C 2.003906 -1.109375 2.082031 -1.285156 2.125 -1.515625 C 2.164062 -1.742188 2.1875 -2.039062 2.1875 -2.40625 L 2.1875 -9.609375 C 2.1875 -9.972656 2.164062 -10.265625 2.125 -10.484375 C 2.09375 -10.710938 2.023438 -10.890625 1.921875 -11.015625 C 1.816406 -11.148438 1.664062 -11.238281 1.46875 -11.28125 C 1.28125 -11.332031 1.03125 -11.367188 0.71875 -11.390625 L 0.71875 -12.015625 L 6.109375 -12.015625 L 6.109375 -11.390625 C 5.753906 -11.378906 5.46875 -11.347656 5.25 -11.296875 C 5.039062 -11.242188 4.878906 -11.148438 4.765625 -11.015625 C 4.648438 -10.878906 4.570312 -10.691406 4.53125 -10.453125 C 4.5 -10.210938 4.484375 -9.894531 4.484375 -9.5 L 4.484375 -2.96875 C 4.484375 -2.53125 4.523438 -2.171875 4.609375 -1.890625 C 4.703125 -1.617188 4.859375 -1.40625 5.078125 -1.25 C 5.296875 -1.101562 5.585938 -1 5.953125 -0.9375 C 6.316406 -0.882812 6.769531 -0.859375 7.3125 -0.859375 C 7.90625 -0.859375 8.40625 -0.894531 8.8125 -0.96875 C 9.21875 -1.039062 9.554688 -1.175781 9.828125 -1.375 C 10.109375 -1.582031 10.332031 -1.859375 10.5 -2.203125 C 10.664062 -2.546875 10.804688 -2.992188 10.921875 -3.546875 L 11.546875 -3.546875 Z M 11.296875 0 "/></g></g></g><g fill="#029b51" fill-opacity="1"><g transform="translate(53.272131, 29.125858)"><g><path d="M 0.515625 0 L 0.515625 -0.625 C 0.867188 -0.632812 1.148438 -0.664062 1.359375 -0.71875 C 1.578125 -0.769531 1.742188 -0.859375 1.859375 -0.984375 C 1.984375 -1.109375 2.066406 -1.285156 2.109375 -1.515625 C 2.148438 -1.742188 2.171875 -2.039062 2.171875 -2.40625 L 2.171875 -9.609375 C 2.171875 -9.972656 2.15625 -10.265625 2.125 -10.484375 C 2.09375 -10.710938 2.023438 -10.890625 1.921875 -11.015625 C 1.828125 -11.148438 1.691406 -11.238281 1.515625 -11.28125 C 1.347656 -11.332031 1.125 -11.367188 0.84375 -11.390625 L 0.84375 -12.015625 L 5.859375 -12.015625 C 7.421875 -12.015625 8.625 -11.757812 9.46875 -11.25 C 10.320312 -10.75 10.75 -10.03125 10.75 -9.09375 C 10.75 -7.863281 9.859375 -6.992188 8.078125 -6.484375 L 8.078125 -6.421875 C 8.648438 -6.421875 9.164062 -6.335938 9.625 -6.171875 C 10.09375 -6.015625 10.488281 -5.789062 10.8125 -5.5 C 11.132812 -5.207031 11.382812 -4.863281 11.5625 -4.46875 C 11.738281 -4.070312 11.828125 -3.640625 11.828125 -3.171875 C 11.828125 -2.640625 11.695312 -2.175781 11.4375 -1.78125 C 11.1875 -1.382812 10.820312 -1.050781 10.34375 -0.78125 C 9.414062 -0.257812 8.144531 0 6.53125 0 Z M 6.640625 -0.953125 C 8.304688 -0.953125 9.140625 -1.707031 9.140625 -3.21875 C 9.140625 -4.144531 8.835938 -4.820312 8.234375 -5.25 C 7.921875 -5.46875 7.519531 -5.625 7.03125 -5.71875 C 6.539062 -5.8125 5.9375 -5.859375 5.21875 -5.859375 L 4.46875 -5.859375 L 4.46875 -2.734375 C 4.46875 -2.085938 4.632812 -1.628906 4.96875 -1.359375 C 5.300781 -1.085938 5.859375 -0.953125 6.640625 -0.953125 Z M 5.390625 -6.796875 C 5.859375 -6.796875 6.265625 -6.835938 6.609375 -6.921875 C 6.953125 -7.015625 7.242188 -7.144531 7.484375 -7.3125 C 7.972656 -7.644531 8.21875 -8.175781 8.21875 -8.90625 C 8.21875 -9.664062 8.03125 -10.210938 7.65625 -10.546875 C 7.289062 -10.890625 6.691406 -11.0625 5.859375 -11.0625 L 4.75 -11.0625 C 4.5625 -11.0625 4.46875 -10.972656 4.46875 -10.796875 L 4.46875 -6.796875 Z M 5.390625 -6.796875 "/></g></g></g><g fill="#029b51" fill-opacity="1"><g transform="translate(65.708102, 29.125858)"><g><path d="M 7.375 -12.171875 C 8.300781 -12.171875 9.171875 -12.007812 9.984375 -11.6875 C 10.796875 -11.363281 11.5 -10.921875 12.09375 -10.359375 C 12.695312 -9.796875 13.171875 -9.132812 13.515625 -8.375 C 13.859375 -7.625 14.03125 -6.804688 14.03125 -5.921875 C 14.03125 -5.078125 13.851562 -4.285156 13.5 -3.546875 C 13.15625 -2.804688 12.679688 -2.160156 12.078125 -1.609375 C 11.484375 -1.066406 10.78125 -0.632812 9.96875 -0.3125 C 9.15625 0 8.289062 0.15625 7.375 0.15625 C 6.445312 0.15625 5.578125 0 4.765625 -0.3125 C 3.953125 -0.632812 3.242188 -1.066406 2.640625 -1.609375 C 2.035156 -2.160156 1.5625 -2.804688 1.21875 -3.546875 C 0.875 -4.285156 0.703125 -5.078125 0.703125 -5.921875 C 0.703125 -6.804688 0.875 -7.625 1.21875 -8.375 C 1.5625 -9.132812 2.03125 -9.796875 2.625 -10.359375 C 3.226562 -10.921875 3.9375 -11.363281 4.75 -11.6875 C 5.5625 -12.007812 6.4375 -12.171875 7.375 -12.171875 Z M 7.375 -0.859375 C 7.96875 -0.859375 8.507812 -0.972656 9 -1.203125 C 9.488281 -1.441406 9.90625 -1.773438 10.25 -2.203125 C 10.59375 -2.640625 10.851562 -3.164062 11.03125 -3.78125 C 11.21875 -4.40625 11.3125 -5.101562 11.3125 -5.875 C 11.3125 -6.6875 11.21875 -7.414062 11.03125 -8.0625 C 10.851562 -8.707031 10.59375 -9.257812 10.25 -9.71875 C 9.90625 -10.1875 9.488281 -10.539062 9 -10.78125 C 8.507812 -11.03125 7.96875 -11.15625 7.375 -11.15625 C 6.757812 -11.15625 6.207031 -11.03125 5.71875 -10.78125 C 5.238281 -10.539062 4.828125 -10.1875 4.484375 -9.71875 C 4.140625 -9.257812 3.875 -8.707031 3.6875 -8.0625 C 3.507812 -7.414062 3.421875 -6.6875 3.421875 -5.875 C 3.421875 -5.101562 3.507812 -4.40625 3.6875 -3.78125 C 3.875 -3.164062 4.140625 -2.640625 4.484375 -2.203125 C 4.828125 -1.773438 5.238281 -1.441406 5.71875 -1.203125 C 6.207031 -0.972656 6.757812 -0.859375 7.375 -0.859375 Z M 7.375 -0.859375 "/></g></g></g><g fill="#029b51" fill-opacity="1"><g transform="translate(80.422182, 29.125858)"><g><path d="M 10.84375 -9 C 10.84375 -8.144531 10.59375 -7.425781 10.09375 -6.84375 C 9.59375 -6.257812 8.800781 -5.867188 7.71875 -5.671875 L 11.328125 -1.515625 C 11.578125 -1.222656 11.875 -1 12.21875 -0.84375 C 12.5625 -0.695312 12.910156 -0.625 13.265625 -0.625 L 13.265625 0 L 9.5625 0 L 5.703125 -4.75 C 5.441406 -5.0625 5.210938 -5.269531 5.015625 -5.375 C 4.828125 -5.488281 4.648438 -5.546875 4.484375 -5.546875 L 4.484375 -2.484375 C 4.484375 -2.097656 4.507812 -1.78125 4.5625 -1.53125 C 4.613281 -1.289062 4.71875 -1.101562 4.875 -0.96875 C 5.03125 -0.832031 5.253906 -0.738281 5.546875 -0.6875 C 5.847656 -0.644531 6.25 -0.625 6.75 -0.625 L 6.75 0 L 0.546875 0 L 0.546875 -0.625 C 0.890625 -0.625 1.164062 -0.644531 1.375 -0.6875 C 1.59375 -0.738281 1.757812 -0.828125 1.875 -0.953125 C 2 -1.085938 2.082031 -1.269531 2.125 -1.5 C 2.164062 -1.738281 2.1875 -2.039062 2.1875 -2.40625 L 2.1875 -9.609375 C 2.1875 -9.972656 2.171875 -10.265625 2.140625 -10.484375 C 2.109375 -10.710938 2.039062 -10.890625 1.9375 -11.015625 C 1.832031 -11.148438 1.679688 -11.238281 1.484375 -11.28125 C 1.296875 -11.332031 1.039062 -11.367188 0.71875 -11.390625 L 0.71875 -12.015625 L 6.125 -12.015625 C 7.625 -12.015625 8.785156 -11.75 9.609375 -11.21875 C 10.429688 -10.6875 10.84375 -9.945312 10.84375 -9 Z M 4.484375 -6.484375 L 5.5 -6.484375 C 6.476562 -6.484375 7.207031 -6.671875 7.6875 -7.046875 C 8.164062 -7.429688 8.40625 -8.054688 8.40625 -8.921875 C 8.40625 -9.585938 8.203125 -10.125 7.796875 -10.53125 C 7.398438 -10.9375 6.84375 -11.140625 6.125 -11.140625 L 4.765625 -11.140625 C 4.578125 -11.140625 4.484375 -11.050781 4.484375 -10.875 Z M 4.484375 -6.484375 "/></g></g></g><g fill="#029b51" fill-opacity="1"><g transform="translate(93.139017, 29.125858)"><g><path d="M 7.8125 -3.640625 L 3.40625 -3.640625 C 2.914062 -2.535156 2.671875 -1.769531 2.671875 -1.34375 C 2.671875 -1.03125 2.785156 -0.832031 3.015625 -0.75 C 3.253906 -0.664062 3.609375 -0.625 4.078125 -0.625 L 4.078125 0 L -0.203125 0 L -0.203125 -0.625 C 0.046875 -0.65625 0.257812 -0.695312 0.4375 -0.75 C 0.625 -0.800781 0.785156 -0.875 0.921875 -0.96875 C 1.066406 -1.0625 1.191406 -1.179688 1.296875 -1.328125 C 1.398438 -1.484375 1.5 -1.671875 1.59375 -1.890625 L 5.703125 -12.171875 L 6.859375 -12.171875 L 10.578125 -3.0625 C 10.796875 -2.53125 10.976562 -2.113281 11.125 -1.8125 C 11.28125 -1.507812 11.441406 -1.273438 11.609375 -1.109375 C 11.785156 -0.953125 11.984375 -0.84375 12.203125 -0.78125 C 12.429688 -0.71875 12.722656 -0.671875 13.078125 -0.640625 L 13.078125 0 L 7.1875 0 L 7.1875 -0.640625 C 7.675781 -0.660156 8.03125 -0.710938 8.25 -0.796875 C 8.46875 -0.878906 8.578125 -1.046875 8.578125 -1.296875 C 8.578125 -1.441406 8.539062 -1.628906 8.46875 -1.859375 C 8.394531 -2.085938 8.296875 -2.367188 8.171875 -2.703125 Z M 3.765625 -4.578125 L 7.484375 -4.578125 L 5.6875 -9.296875 L 5.625 -9.296875 Z M 3.765625 -4.578125 "/></g></g></g><g fill="#029b51" fill-opacity="1"><g transform="translate(105.762229, 29.125858)"><g/></g></g><g fill="#029b51" fill-opacity="1"><g transform="translate(109.912751, 29.125858)"><g><path d="M 9.0625 -2.921875 L 12.671875 -12.015625 L 17.234375 -12.015625 L 17.234375 -11.390625 C 16.890625 -11.390625 16.609375 -11.351562 16.390625 -11.28125 C 16.179688 -11.21875 16.019531 -11.097656 15.90625 -10.921875 C 15.789062 -10.742188 15.710938 -10.5 15.671875 -10.1875 C 15.640625 -9.882812 15.625 -9.5 15.625 -9.03125 L 15.625 -2.984375 C 15.625 -2.460938 15.644531 -2.050781 15.6875 -1.75 C 15.726562 -1.445312 15.8125 -1.210938 15.9375 -1.046875 C 16.0625 -0.878906 16.238281 -0.769531 16.46875 -0.71875 C 16.707031 -0.664062 17.019531 -0.632812 17.40625 -0.625 L 17.40625 0 L 11.53125 0 L 11.53125 -0.625 C 11.914062 -0.632812 12.222656 -0.664062 12.453125 -0.71875 C 12.691406 -0.78125 12.875 -0.890625 13 -1.046875 C 13.132812 -1.203125 13.222656 -1.421875 13.265625 -1.703125 C 13.304688 -1.992188 13.328125 -2.382812 13.328125 -2.875 L 13.328125 -10.171875 L 13.25 -10.171875 L 9.046875 0.15625 L 7.890625 0.15625 L 3.5625 -10.171875 L 3.5 -10.171875 L 3.5 -2.984375 C 3.5 -2.460938 3.519531 -2.050781 3.5625 -1.75 C 3.601562 -1.445312 3.6875 -1.210938 3.8125 -1.046875 C 3.9375 -0.878906 4.113281 -0.769531 4.34375 -0.71875 C 4.582031 -0.664062 4.894531 -0.632812 5.28125 -0.625 L 5.28125 0 L 0.46875 0 L 0.46875 -0.625 C 0.851562 -0.632812 1.164062 -0.664062 1.40625 -0.71875 C 1.644531 -0.78125 1.828125 -0.890625 1.953125 -1.046875 C 2.085938 -1.203125 2.175781 -1.421875 2.21875 -1.703125 C 2.257812 -1.992188 2.28125 -2.382812 2.28125 -2.875 L 2.28125 -9.140625 C 2.28125 -9.578125 2.257812 -9.941406 2.21875 -10.234375 C 2.175781 -10.523438 2.097656 -10.753906 1.984375 -10.921875 C 1.867188 -11.097656 1.703125 -11.21875 1.484375 -11.28125 C 1.273438 -11.351562 0.992188 -11.390625 0.640625 -11.390625 L 0.640625 -12.015625 L 5.375 -12.015625 L 9 -2.921875 Z M 9.0625 -2.921875 "/></g></g></g><g fill="#029b51" fill-opacity="1"><g transform="translate(127.77873, 29.125858)"><g><path d="M 4.484375 -6.65625 C 5.148438 -6.65625 5.6875 -6.675781 6.09375 -6.71875 C 6.5 -6.757812 6.8125 -6.84375 7.03125 -6.96875 C 7.257812 -7.101562 7.421875 -7.289062 7.515625 -7.53125 C 7.609375 -7.78125 7.679688 -8.117188 7.734375 -8.546875 L 8.296875 -8.546875 L 8.296875 -3.984375 L 7.734375 -3.984375 C 7.671875 -4.398438 7.585938 -4.734375 7.484375 -4.984375 C 7.378906 -5.234375 7.210938 -5.421875 6.984375 -5.546875 C 6.753906 -5.679688 6.441406 -5.765625 6.046875 -5.796875 C 5.660156 -5.835938 5.140625 -5.859375 4.484375 -5.859375 L 4.484375 -2.640625 C 4.484375 -2.304688 4.523438 -2.023438 4.609375 -1.796875 C 4.703125 -1.566406 4.851562 -1.378906 5.0625 -1.234375 C 5.269531 -1.097656 5.546875 -1 5.890625 -0.9375 C 6.234375 -0.882812 6.65625 -0.859375 7.15625 -0.859375 C 7.738281 -0.859375 8.234375 -0.898438 8.640625 -0.984375 C 9.054688 -1.066406 9.398438 -1.210938 9.671875 -1.421875 C 9.941406 -1.628906 10.160156 -1.90625 10.328125 -2.25 C 10.492188 -2.601562 10.632812 -3.046875 10.75 -3.578125 L 11.375 -3.578125 L 11.125 0 L 0.546875 0 L 0.546875 -0.625 C 0.890625 -0.632812 1.171875 -0.664062 1.390625 -0.71875 C 1.609375 -0.769531 1.773438 -0.859375 1.890625 -0.984375 C 2.003906 -1.109375 2.082031 -1.285156 2.125 -1.515625 C 2.164062 -1.742188 2.1875 -2.039062 2.1875 -2.40625 L 2.1875 -9.609375 C 2.1875 -9.972656 2.164062 -10.265625 2.125 -10.484375 C 2.09375 -10.710938 2.023438 -10.890625 1.921875 -11.015625 C 1.816406 -11.148438 1.664062 -11.238281 1.46875 -11.28125 C 1.28125 -11.332031 1.03125 -11.367188 0.71875 -11.390625 L 0.71875 -12.015625 L 10.578125 -12.015625 L 10.6875 -8.953125 L 10.015625 -8.953125 C 9.953125 -9.390625 9.851562 -9.75 9.71875 -10.03125 C 9.582031 -10.320312 9.394531 -10.550781 9.15625 -10.71875 C 8.914062 -10.894531 8.609375 -11.015625 8.234375 -11.078125 C 7.859375 -11.148438 7.394531 -11.1875 6.84375 -11.1875 L 5.078125 -11.1875 C 4.804688 -11.1875 4.640625 -11.148438 4.578125 -11.078125 C 4.515625 -11.015625 4.484375 -10.859375 4.484375 -10.609375 Z M 4.484375 -6.65625 "/></g></g></g><g fill="#029b51" fill-opacity="1"><g transform="translate(139.699784, 29.125858)"><g><path d="M 12.71875 -8.578125 L 12.046875 -8.578125 C 12.015625 -9.085938 11.9375 -9.507812 11.8125 -9.84375 C 11.695312 -10.1875 11.53125 -10.457031 11.3125 -10.65625 C 11.09375 -10.863281 10.828125 -11.003906 10.515625 -11.078125 C 10.203125 -11.160156 9.835938 -11.203125 9.421875 -11.203125 C 9.015625 -11.203125 8.6875 -11.191406 8.4375 -11.171875 C 8.195312 -11.160156 8.015625 -11.132812 7.890625 -11.09375 C 7.765625 -11.0625 7.679688 -11.015625 7.640625 -10.953125 C 7.597656 -10.890625 7.578125 -10.8125 7.578125 -10.71875 L 7.578125 -2.546875 C 7.578125 -2.210938 7.597656 -1.925781 7.640625 -1.6875 C 7.691406 -1.445312 7.785156 -1.25 7.921875 -1.09375 C 8.066406 -0.945312 8.28125 -0.832031 8.5625 -0.75 C 8.84375 -0.675781 9.210938 -0.632812 9.671875 -0.625 L 9.671875 0 L 3.140625 0 L 3.140625 -0.625 C 3.609375 -0.632812 3.984375 -0.675781 4.265625 -0.75 C 4.546875 -0.832031 4.757812 -0.945312 4.90625 -1.09375 C 5.0625 -1.25 5.160156 -1.445312 5.203125 -1.6875 C 5.253906 -1.925781 5.28125 -2.210938 5.28125 -2.546875 L 5.28125 -10.71875 C 5.28125 -10.8125 5.257812 -10.890625 5.21875 -10.953125 C 5.1875 -11.015625 5.113281 -11.0625 5 -11.09375 C 4.882812 -11.132812 4.71875 -11.160156 4.5 -11.171875 C 4.289062 -11.191406 4.015625 -11.203125 3.671875 -11.203125 C 3.296875 -11.203125 2.9375 -11.179688 2.59375 -11.140625 C 2.25 -11.109375 1.945312 -11.003906 1.6875 -10.828125 C 1.425781 -10.660156 1.210938 -10.398438 1.046875 -10.046875 C 0.890625 -9.703125 0.804688 -9.210938 0.796875 -8.578125 L 0.1875 -8.578125 L 0.34375 -12.015625 L 12.5625 -12.015625 Z M 12.71875 -8.578125 "/></g></g></g><g fill="#029b51" fill-opacity="1"><g transform="translate(152.603859, 29.125858)"><g><path d="M 7.8125 -3.640625 L 3.40625 -3.640625 C 2.914062 -2.535156 2.671875 -1.769531 2.671875 -1.34375 C 2.671875 -1.03125 2.785156 -0.832031 3.015625 -0.75 C 3.253906 -0.664062 3.609375 -0.625 4.078125 -0.625 L 4.078125 0 L -0.203125 0 L -0.203125 -0.625 C 0.046875 -0.65625 0.257812 -0.695312 0.4375 -0.75 C 0.625 -0.800781 0.785156 -0.875 0.921875 -0.96875 C 1.066406 -1.0625 1.191406 -1.179688 1.296875 -1.328125 C 1.398438 -1.484375 1.5 -1.671875 1.59375 -1.890625 L 5.703125 -12.171875 L 6.859375 -12.171875 L 10.578125 -3.0625 C 10.796875 -2.53125 10.976562 -2.113281 11.125 -1.8125 C 11.28125 -1.507812 11.441406 -1.273438 11.609375 -1.109375 C 11.785156 -0.953125 11.984375 -0.84375 12.203125 -0.78125 C 12.429688 -0.71875 12.722656 -0.671875 13.078125 -0.640625 L 13.078125 0 L 7.1875 0 L 7.1875 -0.640625 C 7.675781 -0.660156 8.03125 -0.710938 8.25 -0.796875 C 8.46875 -0.878906 8.578125 -1.046875 8.578125 -1.296875 C 8.578125 -1.441406 8.539062 -1.628906 8.46875 -1.859375 C 8.394531 -2.085938 8.296875 -2.367188 8.171875 -2.703125 Z M 3.765625 -4.578125 L 7.484375 -4.578125 L 5.6875 -9.296875 L 5.625 -9.296875 Z M 3.765625 -4.578125 "/></g></g></g><g fill="#029b51" fill-opacity="1"><g transform="translate(165.227076, 29.125858)"><g><path d="M 11.296875 0 L 0.546875 0 L 0.546875 -0.625 C 0.890625 -0.632812 1.171875 -0.664062 1.390625 -0.71875 C 1.609375 -0.769531 1.773438 -0.859375 1.890625 -0.984375 C 2.003906 -1.109375 2.082031 -1.285156 2.125 -1.515625 C 2.164062 -1.742188 2.1875 -2.039062 2.1875 -2.40625 L 2.1875 -9.609375 C 2.1875 -9.972656 2.164062 -10.265625 2.125 -10.484375 C 2.09375 -10.710938 2.023438 -10.890625 1.921875 -11.015625 C 1.816406 -11.148438 1.664062 -11.238281 1.46875 -11.28125 C 1.28125 -11.332031 1.03125 -11.367188 0.71875 -11.390625 L 0.71875 -12.015625 L 6.109375 -12.015625 L 6.109375 -11.390625 C 5.753906 -11.378906 5.46875 -11.347656 5.25 -11.296875 C 5.039062 -11.242188 4.878906 -11.148438 4.765625 -11.015625 C 4.648438 -10.878906 4.570312 -10.691406 4.53125 -10.453125 C 4.5 -10.210938 4.484375 -9.894531 4.484375 -9.5 L 4.484375 -2.96875 C 4.484375 -2.53125 4.523438 -2.171875 4.609375 -1.890625 C 4.703125 -1.617188 4.859375 -1.40625 5.078125 -1.25 C 5.296875 -1.101562 5.585938 -1 5.953125 -0.9375 C 6.316406 -0.882812 6.769531 -0.859375 7.3125 -0.859375 C 7.90625 -0.859375 8.40625 -0.894531 8.8125 -0.96875 C 9.21875 -1.039062 9.554688 -1.175781 9.828125 -1.375 C 10.109375 -1.582031 10.332031 -1.859375 10.5 -2.203125 C 10.664062 -2.546875 10.804688 -2.992188 10.921875 -3.546875 L 11.546875 -3.546875 Z M 11.296875 0 "/></g></g></g></svg>